<svg version="1.1" viewBox="0.0 0.0 291.29133858267716 278.9133858267717" fill="none" stroke="none" stroke-linecap="square" stroke-miterlimit="10" xmlns:xlink="http://www.w3.org/1999/xlink" xmlns="http://www.w3.org/2000/svg"><clipPath id="p.0"><path d="m0 0l291.29135 0l0 278.9134l-291.29135 0l0 -278.9134z" clip-rule="nonzero"/></clipPath><g clip-path="url(#p.0)"><path fill="#000000" fill-opacity="0.0" d="m0 0l291.29135 0l0 278.9134l-291.29135 0z" fill-rule="evenodd"/><path fill="#cfe2f3" d="m26.699953 13.212599l62.041824 0l8.57235 8.57235l0 42.860718l-70.614174 0z" fill-rule="evenodd"/><path stroke="#0b5394" stroke-width="4.0" stroke-linejoin="round" stroke-linecap="butt" d="m26.699953 13.212599l62.041824 0l8.57235 8.57235l0 42.860718l-70.614174 0z" fill-rule="evenodd"/><path fill="#0b5394" d="m46.317924 39.47222l0 -4.765625l2.125 0q0.625 0 0.953125 0.125q0.34375 0.125 0.53125 0.453125q0.203125 0.328125 0.203125 0.71875q0 0.515625 -0.328125 0.859375q-0.328125 0.34375 -1.015625 0.4375q0.25 0.125 0.390625 0.234375q0.265625 0.265625 0.515625 0.640625l0.828125 1.296875l-0.796875 0l-0.625 -0.984375q-0.28125 -0.4375 -0.453125 -0.65625q-0.171875 -0.234375 -0.328125 -0.328125q-0.140625 -0.09375 -0.28125 -0.125q-0.109375 -0.015625 -0.34375 -0.015625l-0.734375 0l0 2.109375l-0.640625 0zm0.640625 -2.65625l1.359375 0q0.421875 0 0.65625 -0.09375q0.25 -0.09375 0.375 -0.28125q0.140625 -0.203125 0.140625 -0.4375q0 -0.328125 -0.25 -0.546875q-0.25 -0.21875 -0.78125 -0.21875l-1.5 0l0 1.578125zm6.3381805 2.234375q-0.328125 0.265625 -0.625 0.390625q-0.296875 0.109375 -0.640625 0.109375q-0.578125 0 -0.890625 -0.28125q-0.296875 -0.28125 -0.296875 -0.703125q0 -0.25 0.109375 -0.453125q0.125 -0.21875 0.3125 -0.34375q0.1875 -0.140625 0.421875 -0.203125q0.171875 -0.046875 0.515625 -0.078125q0.71875 -0.09375 1.046875 -0.203125q0 -0.125 0 -0.15625q0 -0.359375 -0.15625 -0.5q-0.234375 -0.203125 -0.671875 -0.203125q-0.40625 0 -0.609375 0.15625q-0.203125 0.140625 -0.296875 0.5l-0.5625 -0.078125q0.078125 -0.359375 0.25 -0.578125q0.1875 -0.234375 0.515625 -0.359375q0.34375 -0.125 0.78125 -0.125q0.453125 0 0.71875 0.109375q0.28125 0.09375 0.40625 0.265625q0.140625 0.15625 0.1875 0.390625q0.03125 0.15625 0.03125 0.546875l0 0.765625q0 0.828125 0.03125 1.046875q0.046875 0.203125 0.15625 0.40625l-0.609375 0q-0.09375 -0.1875 -0.125 -0.421875zm-0.046875 -1.3125q-0.3125 0.125 -0.953125 0.21875q-0.359375 0.0625 -0.515625 0.125q-0.140625 0.0625 -0.234375 0.1875q-0.078125 0.125 -0.078125 0.28125q0 0.234375 0.171875 0.390625q0.1875 0.15625 0.53125 0.15625q0.328125 0 0.59375 -0.140625q0.265625 -0.15625 0.390625 -0.421875q0.09375 -0.1875 0.09375 -0.578125l0 -0.21875zm1.264389 0.703125l0.578125 -0.09375q0.046875 0.34375 0.265625 0.53125q0.234375 0.1875 0.625 0.1875q0.40625 0 0.59375 -0.15625q0.203125 -0.171875 0.203125 -0.390625q0 -0.203125 -0.171875 -0.3125q-0.125 -0.078125 -0.59375 -0.203125q-0.640625 -0.15625 -0.890625 -0.265625q-0.25 -0.125 -0.390625 -0.328125q-0.125 -0.21875 -0.125 -0.46875q0 -0.234375 0.109375 -0.421875q0.109375 -0.203125 0.296875 -0.34375q0.125 -0.09375 0.359375 -0.15625q0.234375 -0.078125 0.515625 -0.078125q0.40625 0 0.703125 0.125q0.3125 0.109375 0.453125 0.3125q0.15625 0.203125 0.203125 0.53125l-0.5625 0.078125q-0.046875 -0.265625 -0.234375 -0.40625q-0.1875 -0.15625 -0.53125 -0.15625q-0.390625 0 -0.5625 0.140625q-0.171875 0.125 -0.171875 0.296875q0 0.125 0.0625 0.203125q0.078125 0.109375 0.21875 0.15625q0.09375 0.046875 0.53125 0.15625q0.609375 0.171875 0.859375 0.28125q0.25 0.09375 0.390625 0.296875q0.140625 0.203125 0.140625 0.5q0 0.296875 -0.171875 0.5625q-0.171875 0.25 -0.5 0.390625q-0.3125 0.140625 -0.71875 0.140625q-0.6875 0 -1.046875 -0.28125q-0.34375 -0.28125 -0.4375 -0.828125zm3.5625 2.359375l0 -4.78125l0.53125 0l0 0.453125q0.18750381 -0.265625 0.4218788 -0.390625q0.25 -0.140625 0.578125 -0.140625q0.453125 0 0.78125 0.234375q0.34375 0.21875 0.515625 0.640625q0.171875 0.40625 0.171875 0.90625q0 0.53125 -0.1875 0.953125q-0.1875 0.421875 -0.5625 0.65625q-0.359375 0.21875 -0.75 0.21875q-0.296875 0 -0.53125 -0.125q-0.234375 -0.125 -0.3750038 -0.3125l0 1.6875l-0.59375 0zm0.53125 -3.03125q0 0.65625 0.2656288 0.984375q0.28125 0.3125 0.65625 0.3125q0.390625 0 0.671875 -0.328125q0.28125 -0.328125 0.28125 -1.015625q0 -0.671875 -0.28125 -1.0q-0.265625 -0.328125 -0.640625 -0.328125q-0.375 0 -0.671875 0.359375q-0.2812538 0.34375 -0.2812538 1.015625zm3.7175179 1.703125l-0.546875 0l0 -4.765625l0.578125 0l0 1.703125q0.375 -0.46875 0.953125 -0.46875q0.3125 0 0.59375 0.140625q0.2968712 0.125 0.4687462 0.359375q0.1875 0.21875 0.28125 0.546875q0.109375 0.328125 0.109375 0.703125q0 0.890625 -0.4375 1.375q-0.4374962 0.484375 -1.0468712 0.484375q-0.609375 0 -0.953125 -0.515625l0 0.4375zm-0.015625 -1.75q0 0.625 0.171875 0.890625q0.28125 0.453125 0.75 0.453125q0.375 0 0.65625 -0.328125q0.2812462 -0.328125 0.2812462 -1.0q0 -0.671875 -0.2656212 -0.984375q-0.265625 -0.328125 -0.640625 -0.328125q-0.390625 0 -0.671875 0.34375q-0.28125 0.328125 -0.28125 0.953125zm3.1706352 -2.34375l0 -0.671875l0.59375 0l0 0.671875l-0.59375 0zm0 4.09375l0 -3.453125l0.59375 0l0 3.453125l-0.59375 0zm3.7288055 -0.421875q-0.328125 0.265625 -0.625 0.390625q-0.296875 0.109375 -0.640625 0.109375q-0.578125 0 -0.890625 -0.28125q-0.296875 -0.28125 -0.296875 -0.703125q0 -0.25 0.109375 -0.453125q0.125 -0.21875 0.3125 -0.34375q0.1875 -0.140625 0.421875 -0.203125q0.171875 -0.046875 0.515625 -0.078125q0.71875 -0.09375 1.046875 -0.203125q0 -0.125 0 -0.15625q0 -0.359375 -0.15625 -0.5q-0.234375 -0.203125 -0.671875 -0.203125q-0.40625 0 -0.609375 0.15625q-0.203125 0.140625 -0.296875 0.5l-0.5625 -0.078125q0.078125 -0.359375 0.25 -0.578125q0.1875 -0.234375 0.515625 -0.359375q0.34375 -0.125 0.78125 -0.125q0.453125 0 0.71875 0.109375q0.28125 0.09375 0.40625 0.265625q0.140625 0.15625 0.1875 0.390625q0.03125 0.15625 0.03125 0.546875l0 0.765625q0 0.828125 0.03125 1.046875q0.046875 0.203125 0.15625 0.40625l-0.609375 0q-0.09375 -0.1875 -0.125 -0.421875zm-0.046875 -1.3125q-0.3125 0.125 -0.953125 0.21875q-0.359375 0.0625 -0.515625 0.125q-0.140625 0.0625 -0.234375 0.1875q-0.078125 0.125 -0.078125 0.28125q0 0.234375 0.171875 0.390625q0.1875 0.15625 0.53125 0.15625q0.328125 0 0.59375 -0.140625q0.265625 -0.15625 0.390625 -0.421875q0.09375 -0.1875 0.09375 -0.578125l0 -0.21875zm1.498764 1.734375l0 -3.453125l0.53125 0l0 0.5q0.375 -0.578125 1.09375 -0.578125q0.3125 0 0.578125 0.109375q0.265625 0.109375 0.390625 0.296875q0.125 0.1875 0.1875 0.4375q0.03125 0.15625 0.03125 0.5625l0 2.125l-0.59375 0l0 -2.09375q0 -0.359375 -0.078125 -0.53125q-0.0625 -0.1875 -0.234375 -0.28125q-0.171875 -0.109375 -0.40625 -0.109375q-0.375 0 -0.640625 0.234375q-0.265625 0.234375 -0.265625 0.890625l0 1.890625l-0.59375 0z" fill-rule="nonzero"/><path fill="#0b5394" d="m51.239105 47.47222l0 -4.765625l0.625 0l0 4.765625l-0.625 0zm1.6618195 0l0 -3.453125l0.53125 0l0 0.484375q0.15625 -0.25 0.421875 -0.40625q0.28125 -0.15625 0.625 -0.15625q0.375 0 0.625 0.15625q0.25 0.15625 0.34375 0.453125q0.40625 -0.609375 1.0625 -0.609375q0.515625 0 0.78125 0.296875q0.28125 0.28125 0.28125 0.859375l0 2.375l-0.578125 0l0 -2.171875q0 -0.359375 -0.0625 -0.5q-0.046875 -0.15625 -0.203125 -0.25q-0.140625 -0.09375 -0.34375 -0.09375q-0.359375 0 -0.609375 0.25q-0.234375 0.234375 -0.234375 0.765625l0 2.0l-0.59375 0l0 -2.25q0 -0.375 -0.140625 -0.5625q-0.140625 -0.203125 -0.46875 -0.203125q-0.25 0 -0.453125 0.125q-0.203125 0.125 -0.296875 0.375q-0.09375 0.25 -0.09375 0.71875l0 1.796875l-0.59375 0zm7.794712 -0.421875q-0.328125 0.265625 -0.625 0.390625q-0.296875 0.109375 -0.640625 0.109375q-0.578125 0 -0.8906288 -0.28125q-0.296875 -0.28125 -0.296875 -0.703125q0 -0.25 0.109375 -0.453125q0.125 -0.21875 0.3125 -0.34375q0.18750381 -0.140625 0.4218788 -0.203125q0.171875 -0.046875 0.515625 -0.078125q0.71875 -0.09375 1.046875 -0.203125q0 -0.125 0 -0.15625q0 -0.359375 -0.15625 -0.5q-0.234375 -0.203125 -0.671875 -0.203125q-0.40625 0 -0.609375 0.15625q-0.203125 0.140625 -0.296875 0.5l-0.5625038 -0.078125q0.078125 -0.359375 0.25 -0.578125q0.18750381 -0.234375 0.5156288 -0.359375q0.34375 -0.125 0.78125 -0.125q0.453125 0 0.71875 0.109375q0.28125 0.09375 0.40625 0.265625q0.140625 0.15625 0.1875 0.390625q0.03125 0.15625 0.03125 0.546875l0 0.765625q0 0.828125 0.03125 1.046875q0.046875 0.203125 0.15625 0.40625l-0.609375 0q-0.09375 -0.1875 -0.125 -0.421875zm-0.046875 -1.3125q-0.3125 0.125 -0.953125 0.21875q-0.359375 0.0625 -0.515625 0.125q-0.140625 0.0625 -0.234375 0.1875q-0.078125 0.125 -0.078125 0.28125q0 0.234375 0.171875 0.390625q0.1875 0.15625 0.53125 0.15625q0.328125 0 0.59375 -0.140625q0.265625 -0.15625 0.390625 -0.421875q0.09375 -0.1875 0.09375 -0.578125l0 -0.21875zm1.389389 2.015625l0.578125 0.09375q0.03125 0.265625 0.1875 0.375q0.21875 0.171875 0.59375 0.171875q0.40625 0 0.6249962 -0.171875q0.234375 -0.15625 0.3125 -0.453125q0.046875 -0.171875 0.03125 -0.75q-0.3749962 0.453125 -0.9531212 0.453125q-0.703125 0 -1.09375 -0.515625q-0.390625 -0.515625 -0.390625 -1.234375q0 -0.484375 0.171875 -0.90625q0.1875 -0.421875 0.515625 -0.640625q0.34375 -0.234375 0.796875 -0.234375q0.6249962 0 1.0156212 0.5l0 -0.421875l0.53125 0l0 2.984375q0 0.8125 -0.171875 1.140625q-0.15625 0.34375 -0.515625 0.53125q-0.3437462 0.203125 -0.8593712 0.203125q-0.625 0 -1.015625 -0.28125q-0.375 -0.28125 -0.359375 -0.84375zm0.484375 -2.0625q0 0.671875 0.265625 0.984375q0.28125 0.3125 0.6875 0.3125q0.40625 0 0.6718712 -0.3125q0.265625 -0.3125 0.265625 -0.96875q0 -0.640625 -0.28125 -0.953125q-0.2812462 -0.328125 -0.6718712 -0.328125q-0.390625 0 -0.671875 0.328125q-0.265625 0.3125 -0.265625 0.9375zm5.68626 0.671875l0.609375 0.078125q-0.140625 0.53125 -0.53125 0.828125q-0.390625 0.28125 -0.984375 0.28125q-0.765625 0 -1.203125 -0.46875q-0.4375 -0.46875 -0.4375 -1.3125q0 -0.859375 0.4375 -1.34375q0.453125 -0.484375 1.171875 -0.484375q0.6875 0 1.125 0.46875q0.4375 0.46875 0.4375 1.328125q0 0.046875 0 0.15625l-2.578125 0q0.03125 0.578125 0.3125 0.875q0.296875 0.296875 0.734375 0.296875q0.328125 0 0.546875 -0.15625q0.234375 -0.171875 0.359375 -0.546875zm-1.921875 -0.953125l1.9375 0q-0.046875 -0.4375 -0.21875 -0.640625q-0.28125 -0.34375 -0.734375 -0.34375q-0.40625 0 -0.6875 0.265625q-0.265625 0.265625 -0.296875 0.71875z" fill-rule="nonzero"/><path fill="#cfe2f3" d="m26.699953 197.73744l62.041824 0l8.57235 8.572357l0 42.860718l-70.614174 0z" fill-rule="evenodd"/><path stroke="#0b5394" stroke-width="4.0" stroke-linejoin="round" stroke-linecap="butt" d="m26.699953 197.73744l62.041824 0l8.57235 8.572357l0 42.860718l-70.614174 0z" fill-rule="evenodd"/><path fill="#0b5394" d="m47.784355 219.99707l0 -4.765625l0.9375 0l1.140625 3.375q0.15625 0.46875 0.21875 0.703125q0.078125 -0.265625 0.25 -0.765625l1.140625 -3.3125l0.859375 0l0 4.765625l-0.609375 0l0 -3.984375l-1.390625 3.984375l-0.5625 0l-1.375 -4.0625l0 4.0625l-0.609375 0zm5.2634583 -1.71875q0 -0.96875 0.53125 -1.421875q0.453125 -0.390625 1.09375 -0.390625q0.703125 0 1.15625 0.46875q0.453125 0.46875 0.453125 1.28125q0 0.671875 -0.203125 1.0625q-0.1875 0.375 -0.578125 0.59375q-0.375 0.203125 -0.828125 0.203125q-0.734375 0 -1.1875 -0.453125q-0.4375 -0.46875 -0.4375 -1.34375zm0.609375 0q0 0.65625 0.28125 0.984375q0.296875 0.328125 0.734375 0.328125q0.4375 0 0.71875 -0.328125q0.296875 -0.328125 0.296875 -1.015625q0 -0.640625 -0.296875 -0.96875q-0.296875 -0.328125 -0.71875 -0.328125q-0.4375 0 -0.734375 0.328125q-0.28125 0.328125 -0.28125 1.0zm5.545643 1.71875l0 -0.4375q-0.328125 0.515625 -0.9531288 0.515625q-0.421875 0 -0.765625 -0.21875q-0.34375 -0.234375 -0.53125 -0.640625q-0.1875 -0.40625 -0.1875 -0.9375q0 -0.515625 0.171875 -0.9375q0.171875 -0.421875 0.515625 -0.640625q0.34375 -0.234375 0.765625 -0.234375q0.3125 0 0.5468788 0.140625q0.25 0.125 0.40625 0.328125l0 -1.703125l0.578125 0l0 4.765625l-0.546875 0zm-1.8437538 -1.71875q0 0.65625 0.28125 0.984375q0.28125 0.328125 0.65625 0.328125q0.390625 0 0.6562538 -0.3125q0.265625 -0.3125 0.265625 -0.953125q0 -0.703125 -0.28125 -1.03125q-0.2656288 -0.34375 -0.6718788 -0.34375q-0.375 0 -0.640625 0.328125q-0.265625 0.3125 -0.265625 1.0zm3.3112679 -2.375l0 -0.671875l0.59375 0l0 0.671875l-0.59375 0zm0 4.09375l0 -3.453125l0.59375 0l0 3.453125l-0.59375 0zm1.6194305 0l0 -3.0l-0.515625 0l0 -0.453125l0.515625 0l0 -0.359375q0 -0.359375 0.0625 -0.515625q0.078125 -0.234375 0.296875 -0.375q0.21875 -0.140625 0.59375 -0.140625q0.25 0 0.546875 0.0625l-0.078125 0.5q-0.1875 -0.03125 -0.359375 -0.03125q-0.265625 0 -0.375 0.125q-0.109375 0.109375 -0.109375 0.421875l0 0.3125l0.671875 0l0 0.453125l-0.671875 0l0 3.0l-0.578125 0zm1.7086945 -4.09375l0 -0.671875l0.5937462 0l0 0.671875l-0.5937462 0zm0 4.09375l0 -3.453125l0.5937462 0l0 3.453125l-0.5937462 0zm3.8381767 -1.109375l0.609375 0.078125q-0.140625 0.53125 -0.53125 0.828125q-0.390625 0.28125 -0.984375 0.28125q-0.765625 0 -1.203125 -0.46875q-0.4375 -0.46875 -0.4375 -1.3125q0 -0.859375 0.4375 -1.34375q0.453125 -0.484375 1.171875 -0.484375q0.6875 0 1.125 0.46875q0.4375 0.46875 0.4375 1.328125q0 0.046875 0 0.15625l-2.578125 0q0.03125 0.578125 0.3125 0.875q0.296875 0.296875 0.734375 0.296875q0.328125 0 0.546875 -0.15625q0.234375 -0.171875 0.359375 -0.546875zm-1.921875 -0.953125l1.9375 0q-0.046875 -0.4375 -0.21875 -0.640625q-0.28125 -0.34375 -0.734375 -0.34375q-0.40625 0 -0.6875 0.265625q-0.265625 0.265625 -0.296875 0.71875zm5.498764 2.0625l0 -0.4375q-0.328125 0.515625 -0.953125 0.515625q-0.421875 0 -0.765625 -0.21875q-0.34375 -0.234375 -0.53125 -0.640625q-0.1875 -0.40625 -0.1875 -0.9375q0 -0.515625 0.171875 -0.9375q0.171875 -0.421875 0.515625 -0.640625q0.34375 -0.234375 0.765625 -0.234375q0.3125 0 0.546875 0.140625q0.25 0.125 0.40625 0.328125l0 -1.703125l0.578125 0l0 4.765625l-0.546875 0zm-1.84375 -1.71875q0 0.65625 0.28125 0.984375q0.28125 0.328125 0.65625 0.328125q0.390625 0 0.65625 -0.3125q0.265625 -0.3125 0.265625 -0.953125q0 -0.703125 -0.28125 -1.03125q-0.265625 -0.34375 -0.671875 -0.34375q-0.375 0 -0.640625 0.328125q-0.265625 0.3125 -0.265625 1.0z" fill-rule="nonzero"/><path fill="#0b5394" d="m46.317924 227.99707l0 -4.765625l2.125 0q0.625 0 0.953125 0.125q0.34375 0.125 0.53125 0.453125q0.203125 0.328125 0.203125 0.71875q0 0.515625 -0.328125 0.859375q-0.328125 0.34375 -1.015625 0.4375q0.25 0.125 0.390625 0.234375q0.265625 0.265625 0.515625 0.640625l0.828125 1.296875l-0.796875 0l-0.625 -0.984375q-0.28125 -0.4375 -0.453125 -0.65625q-0.171875 -0.234375 -0.328125 -0.328125q-0.140625 -0.09375 -0.28125 -0.125q-0.109375 -0.015625 -0.34375 -0.015625l-0.734375 0l0 2.109375l-0.640625 0zm0.640625 -2.65625l1.359375 0q0.421875 0 0.65625 -0.09375q0.25 -0.09375 0.375 -0.28125q0.140625 -0.203125 0.140625 -0.4375q0 -0.328125 -0.25 -0.546875q-0.25 -0.21875 -0.78125 -0.21875l-1.5 0l0 1.578125zm6.3381805 2.234375q-0.328125 0.265625 -0.625 0.390625q-0.296875 0.109375 -0.640625 0.109375q-0.578125 0 -0.890625 -0.28125q-0.296875 -0.28125 -0.296875 -0.703125q0 -0.25 0.109375 -0.453125q0.125 -0.21875 0.3125 -0.34375q0.1875 -0.140625 0.421875 -0.203125q0.171875 -0.046875 0.515625 -0.078125q0.71875 -0.09375 1.046875 -0.203125q0 -0.125 0 -0.15625q0 -0.359375 -0.15625 -0.5q-0.234375 -0.203125 -0.671875 -0.203125q-0.40625 0 -0.609375 0.15625q-0.203125 0.140625 -0.296875 0.5l-0.5625 -0.078125q0.078125 -0.359375 0.25 -0.578125q0.1875 -0.234375 0.515625 -0.359375q0.34375 -0.125 0.78125 -0.125q0.453125 0 0.71875 0.109375q0.28125 0.09375 0.40625 0.265625q0.140625 0.15625 0.1875 0.390625q0.03125 0.15625 0.03125 0.546875l0 0.765625q0 0.828125 0.03125 1.046875q0.046875 0.203125 0.15625 0.40625l-0.609375 0q-0.09375 -0.1875 -0.125 -0.421875zm-0.046875 -1.3125q-0.3125 0.125 -0.953125 0.21875q-0.359375 0.0625 -0.515625 0.125q-0.140625 0.0625 -0.234375 0.1875q-0.078125 0.125 -0.078125 0.28125q0 0.234375 0.171875 0.390625q0.1875 0.15625 0.53125 0.15625q0.328125 0 0.59375 -0.140625q0.265625 -0.15625 0.390625 -0.421875q0.09375 -0.1875 0.09375 -0.578125l0 -0.21875zm1.264389 0.703125l0.578125 -0.09375q0.046875 0.34375 0.265625 0.53125q0.234375 0.1875 0.625 0.1875q0.40625 0 0.59375 -0.15625q0.203125 -0.171875 0.203125 -0.390625q0 -0.203125 -0.171875 -0.3125q-0.125 -0.078125 -0.59375 -0.203125q-0.640625 -0.15625 -0.890625 -0.265625q-0.25 -0.125 -0.390625 -0.328125q-0.125 -0.21875 -0.125 -0.46875q0 -0.234375 0.109375 -0.421875q0.109375 -0.203125 0.296875 -0.34375q0.125 -0.09375 0.359375 -0.15625q0.234375 -0.078125 0.515625 -0.078125q0.40625 0 0.703125 0.125q0.3125 0.109375 0.453125 0.3125q0.15625 0.203125 0.203125 0.53125l-0.5625 0.078125q-0.046875 -0.265625 -0.234375 -0.40625q-0.1875 -0.15625 -0.53125 -0.15625q-0.390625 0 -0.5625 0.140625q-0.171875 0.125 -0.171875 0.296875q0 0.125 0.0625 0.203125q0.078125 0.109375 0.21875 0.15625q0.09375 0.046875 0.53125 0.15625q0.609375 0.171875 0.859375 0.28125q0.25 0.09375 0.390625 0.296875q0.140625 0.203125 0.140625 0.5q0 0.296875 -0.171875 0.5625q-0.171875 0.25 -0.5 0.390625q-0.3125 0.140625 -0.71875 0.140625q-0.6875 0 -1.046875 -0.28125q-0.34375 -0.28125 -0.4375 -0.828125zm3.5625 2.359375l0 -4.78125l0.53125 0l0 0.453125q0.18750381 -0.265625 0.4218788 -0.390625q0.25 -0.140625 0.578125 -0.140625q0.453125 0 0.78125 0.234375q0.34375 0.21875 0.515625 0.640625q0.171875 0.40625 0.171875 0.90625q0 0.53125 -0.1875 0.953125q-0.1875 0.421875 -0.5625 0.65625q-0.359375 0.21875 -0.75 0.21875q-0.296875 0 -0.53125 -0.125q-0.234375 -0.125 -0.3750038 -0.3125l0 1.6875l-0.59375 0zm0.53125 -3.03125q0 0.65625 0.2656288 0.984375q0.28125 0.3125 0.65625 0.3125q0.390625 0 0.671875 -0.328125q0.28125 -0.328125 0.28125 -1.015625q0 -0.671875 -0.28125 -1.0q-0.265625 -0.328125 -0.640625 -0.328125q-0.375 0 -0.671875 0.359375q-0.2812538 0.34375 -0.2812538 1.015625zm3.7175179 1.703125l-0.546875 0l0 -4.765625l0.578125 0l0 1.703125q0.375 -0.46875 0.953125 -0.46875q0.3125 0 0.59375 0.140625q0.2968712 0.125 0.4687462 0.359375q0.1875 0.21875 0.28125 0.546875q0.109375 0.328125 0.109375 0.703125q0 0.890625 -0.4375 1.375q-0.4374962 0.484375 -1.0468712 0.484375q-0.609375 0 -0.953125 -0.515625l0 0.4375zm-0.015625 -1.75q0 0.625 0.171875 0.890625q0.28125 0.453125 0.75 0.453125q0.375 0 0.65625 -0.328125q0.2812462 -0.328125 0.2812462 -1.0q0 -0.671875 -0.2656212 -0.984375q-0.265625 -0.328125 -0.640625 -0.328125q-0.390625 0 -0.671875 0.34375q-0.28125 0.328125 -0.28125 0.953125zm3.1706352 -2.34375l0 -0.671875l0.59375 0l0 0.671875l-0.59375 0zm0 4.09375l0 -3.453125l0.59375 0l0 3.453125l-0.59375 0zm3.7288055 -0.421875q-0.328125 0.265625 -0.625 0.390625q-0.296875 0.109375 -0.640625 0.109375q-0.578125 0 -0.890625 -0.28125q-0.296875 -0.28125 -0.296875 -0.703125q0 -0.25 0.109375 -0.453125q0.125 -0.21875 0.3125 -0.34375q0.1875 -0.140625 0.421875 -0.203125q0.171875 -0.046875 0.515625 -0.078125q0.71875 -0.09375 1.046875 -0.203125q0 -0.125 0 -0.15625q0 -0.359375 -0.15625 -0.5q-0.234375 -0.203125 -0.671875 -0.203125q-0.40625 0 -0.609375 0.15625q-0.203125 0.140625 -0.296875 0.5l-0.5625 -0.078125q0.078125 -0.359375 0.25 -0.578125q0.1875 -0.234375 0.515625 -0.359375q0.34375 -0.125 0.78125 -0.125q0.453125 0 0.71875 0.109375q0.28125 0.09375 0.40625 0.265625q0.140625 0.15625 0.1875 0.390625q0.03125 0.15625 0.03125 0.546875l0 0.765625q0 0.828125 0.03125 1.046875q0.046875 0.203125 0.15625 0.40625l-0.609375 0q-0.09375 -0.1875 -0.125 -0.421875zm-0.046875 -1.3125q-0.3125 0.125 -0.953125 0.21875q-0.359375 0.0625 -0.515625 0.125q-0.140625 0.0625 -0.234375 0.1875q-0.078125 0.125 -0.078125 0.28125q0 0.234375 0.171875 0.390625q0.1875 0.15625 0.53125 0.15625q0.328125 0 0.59375 -0.140625q0.265625 -0.15625 0.390625 -0.421875q0.09375 -0.1875 0.09375 -0.578125l0 -0.21875zm1.498764 1.734375l0 -3.453125l0.53125 0l0 0.5q0.375 -0.578125 1.09375 -0.578125q0.3125 0 0.578125 0.109375q0.265625 0.109375 0.390625 0.296875q0.125 0.1875 0.1875 0.4375q0.03125 0.15625 0.03125 0.5625l0 2.125l-0.59375 0l0 -2.09375q0 -0.359375 -0.078125 -0.53125q-0.0625 -0.1875 -0.234375 -0.28125q-0.171875 -0.109375 -0.40625 -0.109375q-0.375 0 -0.640625 0.234375q-0.265625 0.234375 -0.265625 0.890625l0 1.890625l-0.59375 0z" fill-rule="nonzero"/><path fill="#0b5394" d="m51.239105 235.99707l0 -4.765625l0.625 0l0 4.765625l-0.625 0zm1.6618195 0l0 -3.453125l0.53125 0l0 0.484375q0.15625 -0.25 0.421875 -0.40625q0.28125 -0.15625 0.625 -0.15625q0.375 0 0.625 0.15625q0.25 0.15625 0.34375 0.453125q0.40625 -0.609375 1.0625 -0.609375q0.515625 0 0.78125 0.296875q0.28125 0.28125 0.28125 0.859375l0 2.375l-0.578125 0l0 -2.171875q0 -0.359375 -0.0625 -0.5q-0.046875 -0.15625 -0.203125 -0.25q-0.140625 -0.09375 -0.34375 -0.09375q-0.359375 0 -0.609375 0.25q-0.234375 0.234375 -0.234375 0.765625l0 2.0l-0.59375 0l0 -2.25q0 -0.375 -0.140625 -0.5625q-0.140625 -0.203125 -0.46875 -0.203125q-0.25 0 -0.453125 0.125q-0.203125 0.125 -0.296875 0.375q-0.09375 0.25 -0.09375 0.71875l0 1.796875l-0.59375 0zm7.794712 -0.421875q-0.328125 0.265625 -0.625 0.390625q-0.296875 0.109375 -0.640625 0.109375q-0.578125 0 -0.8906288 -0.28125q-0.296875 -0.28125 -0.296875 -0.703125q0 -0.25 0.109375 -0.453125q0.125 -0.21875 0.3125 -0.34375q0.18750381 -0.140625 0.4218788 -0.203125q0.171875 -0.046875 0.515625 -0.078125q0.71875 -0.09375 1.046875 -0.203125q0 -0.125 0 -0.15625q0 -0.359375 -0.15625 -0.5q-0.234375 -0.203125 -0.671875 -0.203125q-0.40625 0 -0.609375 0.15625q-0.203125 0.140625 -0.296875 0.5l-0.5625038 -0.078125q0.078125 -0.359375 0.25 -0.578125q0.18750381 -0.234375 0.5156288 -0.359375q0.34375 -0.125 0.78125 -0.125q0.453125 0 0.71875 0.109375q0.28125 0.09375 0.40625 0.265625q0.140625 0.15625 0.1875 0.390625q0.03125 0.15625 0.03125 0.546875l0 0.765625q0 0.828125 0.03125 1.046875q0.046875 0.203125 0.15625 0.40625l-0.609375 0q-0.09375 -0.1875 -0.125 -0.421875zm-0.046875 -1.3125q-0.3125 0.125 -0.953125 0.21875q-0.359375 0.0625 -0.515625 0.125q-0.140625 0.0625 -0.234375 0.1875q-0.078125 0.125 -0.078125 0.28125q0 0.234375 0.171875 0.390625q0.1875 0.15625 0.53125 0.15625q0.328125 0 0.59375 -0.140625q0.265625 -0.15625 0.390625 -0.421875q0.09375 -0.1875 0.09375 -0.578125l0 -0.21875zm1.389389 2.015625l0.578125 0.09375q0.03125 0.265625 0.1875 0.375q0.21875 0.171875 0.59375 0.171875q0.40625 0 0.6249962 -0.171875q0.234375 -0.15625 0.3125 -0.453125q0.046875 -0.171875 0.03125 -0.75q-0.3749962 0.453125 -0.9531212 0.453125q-0.703125 0 -1.09375 -0.515625q-0.390625 -0.515625 -0.390625 -1.234375q0 -0.484375 0.171875 -0.90625q0.1875 -0.421875 0.515625 -0.640625q0.34375 -0.234375 0.796875 -0.234375q0.6249962 0 1.0156212 0.5l0 -0.421875l0.53125 0l0 2.984375q0 0.8125 -0.171875 1.140625q-0.15625 0.34375 -0.515625 0.53125q-0.3437462 0.203125 -0.8593712 0.203125q-0.625 0 -1.015625 -0.28125q-0.375 -0.28125 -0.359375 -0.84375zm0.484375 -2.0625q0 0.671875 0.265625 0.984375q0.28125 0.3125 0.6875 0.3125q0.40625 0 0.6718712 -0.3125q0.265625 -0.3125 0.265625 -0.96875q0 -0.640625 -0.28125 -0.953125q-0.2812462 -0.328125 -0.6718712 -0.328125q-0.390625 0 -0.671875 0.328125q-0.265625 0.3125 -0.265625 0.9375zm5.68626 0.671875l0.609375 0.078125q-0.140625 0.53125 -0.53125 0.828125q-0.390625 0.28125 -0.984375 0.28125q-0.765625 0 -1.203125 -0.46875q-0.4375 -0.46875 -0.4375 -1.3125q0 -0.859375 0.4375 -1.34375q0.453125 -0.484375 1.171875 -0.484375q0.6875 0 1.125 0.46875q0.4375 0.46875 0.4375 1.328125q0 0.046875 0 0.15625l-2.578125 0q0.03125 0.578125 0.3125 0.875q0.296875 0.296875 0.734375 0.296875q0.328125 0 0.546875 -0.15625q0.234375 -0.171875 0.359375 -0.546875zm-1.921875 -0.953125l1.9375 0q-0.046875 -0.4375 -0.21875 -0.640625q-0.28125 -0.34375 -0.734375 -0.34375q-0.40625 0 -0.6875 0.265625q-0.265625 0.265625 -0.296875 0.71875z" fill-rule="nonzero"/><path fill="#000000" fill-opacity="0.0" d="m62.007042 64.64567l0 20.314964" fill-rule="evenodd"/><path stroke="#0b5394" stroke-width="1.0" stroke-linejoin="round" stroke-linecap="butt" d="m62.00704 64.64567l0 14.314964" fill-rule="evenodd"/><path fill="#0b5394" stroke="#0b5394" stroke-width="1.0" stroke-linecap="butt" d="m60.355305 78.96063l1.6517334 4.5380936l1.6517334 -4.5380936z" fill-rule="evenodd"/><path fill="#cfe2f3" d="m29.139318 84.96175l65.705826 0l0 0c8.6076355 0 15.58551 5.1894073 15.58551 11.590866c0 6.4014587 -6.9778748 11.590866 -15.58551 11.590866l-65.705826 0l0 0c-8.607641 0 -15.585512 -5.1894073 -15.585512 -11.590866c0 -6.4014587 6.977871 -11.590866 15.585512 -11.590866z" fill-rule="evenodd"/><path stroke="#0b5394" stroke-width="4.0" stroke-linejoin="round" stroke-linecap="butt" d="m29.139318 84.96175l65.705826 0l0 0c8.6076355 0 15.58551 5.1894073 15.58551 11.590866c0 6.4014587 -6.9778748 11.590866 -15.58551 11.590866l-65.705826 0l0 0c-8.607641 0 -15.585512 -5.1894073 -15.585512 -11.590866c0 -6.4014587 6.977871 -11.590866 15.585512 -11.590866z" fill-rule="evenodd"/><path fill="#0b5394" d="m44.392673 98.952614l0 -4.765625l3.4375 0l0 0.5625l-2.8125 0l0 1.453125l2.640625 0l0 0.5625l-2.640625 0l0 1.625l2.921875 0l0 0.5625l-3.546875 0zm4.3459167 0l0 -3.453125l0.53125 0l0 0.5q0.375 -0.578125 1.09375 -0.578125q0.3125 0 0.578125 0.109375q0.265625 0.109375 0.390625 0.296875q0.125 0.1875 0.1875 0.4375q0.03125 0.15625 0.03125 0.5625l0 2.125l-0.59375 0l0 -2.09375q0 -0.359375 -0.078125 -0.53125q-0.0625 -0.1875 -0.234375 -0.28125q-0.171875 -0.109375 -0.40625 -0.109375q-0.375 0 -0.640625 0.234375q-0.265625 0.234375 -0.265625 0.890625l0 1.890625l-0.59375 0zm5.951889 -0.421875q-0.328125 0.265625 -0.625 0.390625q-0.296875 0.109375 -0.640625 0.109375q-0.578125 0 -0.890625 -0.28125q-0.296875 -0.28125 -0.296875 -0.703125q0 -0.25 0.109375 -0.453125q0.125 -0.21875 0.3125 -0.34375q0.1875 -0.140625 0.421875 -0.203125q0.171875 -0.046875 0.515625 -0.078125q0.71875 -0.09375 1.046875 -0.203125q0 -0.125 0 -0.15625q0 -0.359375 -0.15625 -0.5q-0.234375 -0.203125 -0.671875 -0.203125q-0.40625 0 -0.609375 0.15625q-0.203125 0.140625 -0.296875 0.5l-0.5625 -0.078125q0.078125 -0.359375 0.25 -0.578125q0.1875 -0.234375 0.515625 -0.359375q0.34375 -0.125 0.78125 -0.125q0.453125 0 0.71875 0.109375q0.28125 0.09375 0.40625 0.265625q0.140625 0.15625 0.1875 0.390625q0.03125 0.15625 0.03125 0.546875l0 0.765625q0 0.828125 0.03125 1.046875q0.046875 0.203125 0.15625 0.40625l-0.609375 0q-0.09375 -0.1875 -0.125 -0.421875zm-0.046875 -1.3125q-0.3125 0.125 -0.953125 0.21875q-0.359375 0.0625 -0.515625 0.125q-0.140625 0.0625 -0.234375 0.1875q-0.078125 0.125 -0.078125 0.28125q0 0.234375 0.171875 0.390625q0.1875 0.15625 0.53125 0.15625q0.328125 0 0.59375 -0.140625q0.265625 -0.15625 0.390625 -0.421875q0.09375 -0.1875 0.09375 -0.578125l0 -0.21875zm2.045639 1.734375l-0.546875 0l0 -4.765625l0.578125 0l0 1.703125q0.375 -0.46875 0.953125 -0.46875q0.3125 0 0.59375 0.140625q0.296875 0.125 0.46875 0.359375q0.1875 0.21875 0.28125 0.546875q0.109375 0.328125 0.109375 0.703125q0 0.890625 -0.4375 1.375q-0.4375 0.484375 -1.046875 0.484375q-0.609375 0 -0.953125 -0.515625l0 0.4375zm-0.015625 -1.75q0 0.625 0.171875 0.890625q0.28125 0.453125 0.75 0.453125q0.375 0 0.65625 -0.328125q0.28125 -0.328125 0.28125 -1.0q0 -0.671875 -0.265625 -0.984375q-0.265625 -0.328125 -0.640625 -0.328125q-0.390625 0 -0.671875 0.34375q-0.28125 0.328125 -0.28125 0.953125zm3.155014 1.75l0 -4.765625l0.59375 0l0 4.765625l-0.59375 0zm3.8538055 -1.109375l0.6093788 0.078125q-0.140625 0.53125 -0.5312538 0.828125q-0.390625 0.28125 -0.984375 0.28125q-0.765625 0 -1.203125 -0.46875q-0.4375 -0.46875 -0.4375 -1.3125q0 -0.859375 0.4375 -1.34375q0.453125 -0.484375 1.171875 -0.484375q0.6875 0 1.125 0.46875q0.4375038 0.46875 0.4375038 1.328125q0 0.046875 0 0.15625l-2.5781288 0q0.03125 0.578125 0.3125 0.875q0.296875 0.296875 0.734375 0.296875q0.328125 0 0.546875 -0.15625q0.234375 -0.171875 0.359375 -0.546875zm-1.921875 -0.953125l1.9375 0q-0.046875 -0.4375 -0.21875 -0.640625q-0.28125 -0.34375 -0.734375 -0.34375q-0.40625 0 -0.6875 0.265625q-0.265625 0.265625 -0.296875 0.71875zm4.9730873 0.53125l0.59375 -0.046875q0.046875 0.359375 0.203125 0.59375q0.15625 0.21875 0.46875 0.359375q0.328125 0.140625 0.734375 0.140625q0.359375 0 0.640625 -0.109375q0.28125 -0.109375 0.40625 -0.296875q0.140625 -0.1875 0.140625 -0.40625q0 -0.21875 -0.140625 -0.390625q-0.125 -0.171875 -0.421875 -0.28125q-0.1875 -0.078125 -0.84375 -0.234375q-0.65625 -0.15625 -0.921875 -0.296875q-0.34375 -0.171875 -0.515625 -0.4375q-0.15625 -0.265625 -0.15625 -0.59375q0 -0.359375 0.203125 -0.671875q0.203125 -0.3125 0.59375 -0.46875q0.390625 -0.171875 0.875 -0.171875q0.53125 0 0.9375 0.171875q0.40625 0.171875 0.625 0.5q0.21875 0.328125 0.234375 0.75l-0.609375 0.046875q-0.046875 -0.453125 -0.328125 -0.6875q-0.28125 -0.234375 -0.828125 -0.234375q-0.578125 0 -0.84375 0.21875q-0.25 0.203125 -0.25 0.5q0 0.265625 0.1875 0.421875q0.171875 0.171875 0.9375 0.34375q0.78125 0.171875 1.0625 0.296875q0.421875 0.203125 0.609375 0.5q0.203125 0.28125 0.203125 0.671875q0 0.375 -0.21875 0.71875q-0.21875 0.328125 -0.625 0.515625q-0.40625 0.1875 -0.921875 0.1875q-0.640625 0 -1.078125 -0.1875q-0.4375 -0.1875 -0.6875 -0.5625q-0.25 -0.375 -0.265625 -0.859375zm4.4396667 0l0.59375 -0.046875q0.046875 0.359375 0.203125 0.59375q0.15625 0.21875 0.46875 0.359375q0.328125 0.140625 0.734375 0.140625q0.359375 0 0.640625 -0.109375q0.28125 -0.109375 0.40625 -0.296875q0.140625 -0.1875 0.140625 -0.40625q0 -0.21875 -0.140625 -0.390625q-0.125 -0.171875 -0.421875 -0.28125q-0.1875 -0.078125 -0.84375 -0.234375q-0.65625 -0.15625 -0.921875 -0.296875q-0.34375 -0.171875 -0.515625 -0.4375q-0.15625 -0.265625 -0.15625 -0.59375q0 -0.359375 0.203125 -0.671875q0.203125 -0.3125 0.59375 -0.46875q0.390625 -0.171875 0.875 -0.171875q0.53125 0 0.9375 0.171875q0.40625 0.171875 0.625 0.5q0.21875 0.328125 0.234375 0.75l-0.609375 0.046875q-0.046875 -0.453125 -0.328125 -0.6875q-0.28125 -0.234375 -0.828125 -0.234375q-0.578125 0 -0.84375 0.21875q-0.25 0.203125 -0.25 0.5q0 0.265625 0.1875 0.421875q0.171875 0.171875 0.9375 0.34375q0.78125 0.171875 1.0625 0.296875q0.421875 0.203125 0.609375 0.5q0.203125 0.28125 0.203125 0.671875q0 0.375 -0.21875 0.71875q-0.21875 0.328125 -0.625 0.515625q-0.40625 0.1875 -0.921875 0.1875q-0.640625 0 -1.078125 -0.1875q-0.4375 -0.1875 -0.6875 -0.5625q-0.25 -0.375 -0.265625 -0.859375zm4.6740417 1.53125l0 -4.765625l0.625 0l0 1.953125l2.484375 0l0 -1.953125l0.625 0l0 4.765625l-0.625 0l0 -2.25l-2.484375 0l0 2.25l-0.625 0z" fill-rule="nonzero"/><path fill="#cfe2f3" d="m29.139318 137.35516l65.705826 0l0 0c8.6076355 0 15.58551 5.1894073 15.58551 11.590866c0 6.4014587 -6.9778748 11.590866 -15.58551 11.590866l-65.705826 0l0 0c-8.607641 0 -15.585512 -5.1894073 -15.585512 -11.590866c0 -6.4014587 6.977871 -11.590866 15.585512 -11.590866z" fill-rule="evenodd"/><path stroke="#0b5394" stroke-width="4.0" stroke-linejoin="round" stroke-linecap="butt" d="m29.139318 137.35516l65.705826 0l0 0c8.6076355 0 15.58551 5.1894073 15.58551 11.590866c0 6.4014587 -6.9778748 11.590866 -15.58551 11.590866l-65.705826 0l0 0c-8.607641 0 -15.585512 -5.1894073 -15.585512 -11.590866c0 -6.4014587 6.977871 -11.590866 15.585512 -11.590866z" fill-rule="evenodd"/><path fill="#0b5394" d="m44.99857 149.67415l0.640625 0.15625q-0.203125 0.78125 -0.71875 1.1875q-0.515625 0.40625 -1.25 0.40625q-0.78125 0 -1.265625 -0.3125q-0.484375 -0.3125 -0.734375 -0.90625q-0.25 -0.59375 -0.25 -1.28125q0 -0.734375 0.28125 -1.28125q0.296875 -0.5625 0.8125 -0.84375q0.53125 -0.296875 1.15625 -0.296875q0.71875 0 1.203125 0.359375q0.484375 0.359375 0.6875 1.03125l-0.625 0.140625q-0.171875 -0.515625 -0.484375 -0.75q-0.3125 -0.25 -0.796875 -0.25q-0.546875 0 -0.921875 0.265625q-0.359375 0.265625 -0.515625 0.71875q-0.140625 0.4375 -0.140625 0.90625q0 0.609375 0.171875 1.0625q0.171875 0.453125 0.546875 0.6875q0.375 0.21875 0.8125 0.21875q0.53125 0 0.890625 -0.296875q0.375 -0.3125 0.5 -0.921875zm1.1194305 -0.046875q0 -0.96875 0.53125 -1.421875q0.453125 -0.390625 1.09375 -0.390625q0.703125 0 1.15625 0.46875q0.453125 0.46875 0.453125 1.28125q0 0.671875 -0.203125 1.0625q-0.1875 0.375 -0.578125 0.59375q-0.375 0.203125 -0.828125 0.203125q-0.734375 0 -1.1875 -0.453125q-0.4375 -0.46875 -0.4375 -1.34375zm0.609375 0q0 0.65625 0.28125 0.984375q0.296875 0.328125 0.734375 0.328125q0.4375 0 0.71875 -0.328125q0.296875 -0.328125 0.296875 -1.015625q0 -0.640625 -0.296875 -0.96875q-0.296875 -0.328125 -0.71875 -0.328125q-0.4375 0 -0.734375 0.328125q-0.28125 0.328125 -0.28125 1.0zm3.311264 1.71875l0 -3.453125l0.53125 0l0 0.5q0.375 -0.578125 1.09375 -0.578125q0.3125 0 0.578125 0.109375q0.265625 0.109375 0.390625 0.296875q0.125 0.1875 0.1875 0.4375q0.03125 0.15625 0.03125 0.5625l0 2.125l-0.59375 0l0 -2.09375q0 -0.359375 -0.078125 -0.53125q-0.0625 -0.1875 -0.234375 -0.28125q-0.171875 -0.109375 -0.40625 -0.109375q-0.375 0 -0.640625 0.234375q-0.265625 0.234375 -0.265625 0.890625l0 1.890625l-0.59375 0zm3.842514 0l0 -3.0l-0.515625 0l0 -0.453125l0.515625 0l0 -0.359375q0 -0.359375 0.0625 -0.515625q0.078125 -0.234375 0.296875 -0.375q0.21875 -0.140625 0.59375 -0.140625q0.25 0 0.546875 0.0625l-0.078125 0.5q-0.1875 -0.03125 -0.359375 -0.03125q-0.265625 0 -0.375 0.125q-0.109375 0.109375 -0.109375 0.421875l0 0.3125l0.671875 0l0 0.453125l-0.671875 0l0 3.0l-0.578125 0zm1.7086945 -4.09375l0 -0.671875l0.59375 0l0 0.671875l-0.59375 0zm0 4.09375l0 -3.453125l0.59375 0l0 3.453125l-0.59375 0zm1.3694305 0.28125l0.578125 0.09375q0.03125 0.265625 0.1875 0.375q0.21875 0.171875 0.59375 0.171875q0.40625 0 0.625 -0.171875q0.234375 -0.15625 0.3125 -0.453125q0.046875 -0.171875 0.03125 -0.75q-0.375 0.453125 -0.953125 0.453125q-0.703125 0 -1.09375 -0.515625q-0.390625 -0.515625 -0.390625 -1.234375q0 -0.484375 0.171875 -0.90625q0.1875 -0.421875 0.515625 -0.640625q0.34375 -0.234375 0.796875 -0.234375q0.625 0 1.015625 0.5l0 -0.421875l0.53125 0l0 2.984375q0 0.8125 -0.171875 1.140625q-0.15625 0.34375 -0.515625 0.53125q-0.34375 0.203125 -0.859375 0.203125q-0.625 0 -1.015625 -0.28125q-0.375 -0.28125 -0.359375 -0.84375zm0.484375 -2.0625q0 0.671875 0.265625 0.984375q0.28125 0.3125 0.6875 0.3125q0.40625 0 0.671875 -0.3125q0.265625 -0.3125 0.265625 -0.96875q0 -0.640625 -0.28125 -0.953125q-0.28125 -0.328125 -0.671875 -0.328125q-0.390625 0 -0.671875 0.328125q-0.265625 0.3125 -0.265625 0.9375zm5.592514 1.78125l0 -0.5q-0.40625 0.578125 -1.09375 0.578125q-0.3125 0 -0.578125 -0.109375q-0.265625 -0.125 -0.390625 -0.296875q-0.125 -0.1875 -0.171875 -0.4375q-0.046875 -0.171875 -0.046875 -0.546875l0 -2.140625l0.59375 0l0 1.921875q0 0.453125 0.03125 0.609375q0.0625 0.234375 0.234375 0.375q0.171875 0.125 0.4375 0.125q0.265625 0 0.5 -0.140625q0.234375 -0.140625 0.328125 -0.359375q0.09375 -0.234375 0.09375 -0.6875l0 -1.84375l0.578125 0l0 3.453125l-0.515625 0zm1.4362679 0l0 -3.453125l0.515625 0l0 0.53125q0.203125 -0.375 0.375 -0.484375q0.171875 -0.125 0.375 -0.125q0.296875 0 0.609375 0.1875l-0.203125 0.546875q-0.21875 -0.125 -0.4375 -0.125q-0.1875 0 -0.34375 0.125q-0.140625 0.109375 -0.21875 0.3125q-0.09375 0.3125 -0.09375 0.671875l0 1.8125l-0.578125 0zm4.5759583 -1.109375l0.609375 0.078125q-0.140625 0.53125 -0.53125 0.828125q-0.390625 0.28125 -0.984375 0.28125q-0.765625 0 -1.203125 -0.46875q-0.4375 -0.46875 -0.4375 -1.3125q0 -0.859375 0.4375 -1.34375q0.453125 -0.484375 1.171875 -0.484375q0.6875 0 1.125 0.46875q0.4375 0.46875 0.4375 1.328125q0 0.046875 0 0.15625l-2.578125 0q0.03125 0.578125 0.3125 0.875q0.296875 0.296875 0.734375 0.296875q0.328125 0 0.546875 -0.15625q0.234375 -0.171875 0.359375 -0.546875zm-1.921875 -0.953125l1.9375 0q-0.046875 -0.4375 -0.21875 -0.640625q-0.28125 -0.34375 -0.734375 -0.34375q-0.40625 0 -0.6875 0.265625q-0.265625 0.265625 -0.296875 0.71875zm6.0199585 2.0625l-1.265625 -4.765625l0.65625 0l0.71875 3.125q0.109375 0.484375 0.203125 0.96875q0.1875 -0.765625 0.21875 -0.875l0.90625 -3.21875l0.75 0l0.6875 2.40625q0.25 0.90625 0.375 1.6875q0.09375 -0.453125 0.234375 -1.03125l0.75 -3.0625l0.625 0l-1.296875 4.765625l-0.609375 0l-1.0 -3.625q-0.140625 -0.453125 -0.15625 -0.5625q-0.078125 0.328125 -0.140625 0.5625l-1.015625 3.625l-0.640625 0zm5.376236 -4.09375l0 -0.671875l0.59375 0l0 0.671875l-0.59375 0zm0 4.09375l0 -3.453125l0.59375 0l0 3.453125l-0.59375 0zm1.6194305 0l0 -3.0l-0.515625 0l0 -0.453125l0.515625 0l0 -0.359375q0 -0.359375 0.0625 -0.515625q0.078125 -0.234375 0.296875 -0.375q0.21875 -0.140625 0.59375 -0.140625q0.25 0 0.546875 0.0625l-0.078125 0.5q-0.1875 -0.03125 -0.359375 -0.03125q-0.265625 0 -0.375 0.125q-0.109375 0.109375 -0.109375 0.421875l0 0.3125l0.671875 0l0 0.453125l-0.671875 0l0 3.0l-0.578125 0zm1.7086945 -4.09375l0 -0.671875l0.59375 0l0 0.671875l-0.59375 0zm0 4.09375l0 -3.453125l0.59375 0l0 3.453125l-0.59375 0z" fill-rule="nonzero"/><path fill="#000000" fill-opacity="0.0" d="m61.99223 108.14348l0 29.196854" fill-rule="evenodd"/><path stroke="#0b5394" stroke-width="1.0" stroke-linejoin="round" stroke-linecap="butt" d="m61.992233 108.14348l0 23.196854" fill-rule="evenodd"/><path fill="#0b5394" stroke="#0b5394" stroke-width="1.0" stroke-linecap="butt" d="m60.3405 131.34033l1.6517334 4.538086l1.6517334 -4.538086z" fill-rule="evenodd"/><path fill="#000000" fill-opacity="0.0" d="m61.99223 160.5369l0 37.196854" fill-rule="evenodd"/><path stroke="#0b5394" stroke-width="1.0" stroke-linejoin="round" stroke-linecap="butt" d="m61.992233 160.5369l0 31.196838" fill-rule="evenodd"/><path fill="#0b5394" stroke="#0b5394" stroke-width="1.0" stroke-linecap="butt" d="m60.3405 191.73373l1.6517334 4.538101l1.6517334 -4.538101z" fill-rule="evenodd"/><path fill="#cfe2f3" d="m191.25041 13.212599l62.041824 0l8.572357 8.57235l0 42.860718l-70.61418 0z" fill-rule="evenodd"/><path stroke="#0b5394" stroke-width="4.0" stroke-linejoin="round" stroke-linecap="butt" d="m191.25041 13.212599l62.041824 0l8.572357 8.57235l0 42.860718l-70.61418 0z" fill-rule="evenodd"/><path fill="#0b5394" d="m210.8684 39.47222l0 -4.765625l2.125 0q0.625 0 0.953125 0.125q0.34375 0.125 0.53125 0.453125q0.203125 0.328125 0.203125 0.71875q0 0.515625 -0.328125 0.859375q-0.328125 0.34375 -1.015625 0.4375q0.25 0.125 0.390625 0.234375q0.265625 0.265625 0.515625 0.640625l0.828125 1.296875l-0.796875 0l-0.625 -0.984375q-0.28125 -0.4375 -0.453125 -0.65625q-0.171875 -0.234375 -0.328125 -0.328125q-0.140625 -0.09375 -0.28125 -0.125q-0.109375 -0.015625 -0.34375 -0.015625l-0.734375 0l0 2.109375l-0.640625 0zm0.640625 -2.65625l1.359375 0q0.421875 0 0.65625 -0.09375q0.25 -0.09375 0.375 -0.28125q0.140625 -0.203125 0.140625 -0.4375q0 -0.328125 -0.25 -0.546875q-0.25 -0.21875 -0.78125 -0.21875l-1.5 0l0 1.578125zm6.3381805 2.234375q-0.328125 0.265625 -0.625 0.390625q-0.296875 0.109375 -0.640625 0.109375q-0.578125 0 -0.890625 -0.28125q-0.296875 -0.28125 -0.296875 -0.703125q0 -0.25 0.109375 -0.453125q0.125 -0.21875 0.3125 -0.34375q0.1875 -0.140625 0.421875 -0.203125q0.171875 -0.046875 0.515625 -0.078125q0.71875 -0.09375 1.046875 -0.203125q0 -0.125 0 -0.15625q0 -0.359375 -0.15625 -0.5q-0.234375 -0.203125 -0.671875 -0.203125q-0.40625 0 -0.609375 0.15625q-0.203125 0.140625 -0.296875 0.5l-0.5625 -0.078125q0.078125 -0.359375 0.25 -0.578125q0.1875 -0.234375 0.515625 -0.359375q0.34375 -0.125 0.78125 -0.125q0.453125 0 0.71875 0.109375q0.28125 0.09375 0.40625 0.265625q0.140625 0.15625 0.1875 0.390625q0.03125 0.15625 0.03125 0.546875l0 0.765625q0 0.828125 0.03125 1.046875q0.046875 0.203125 0.15625 0.40625l-0.609375 0q-0.09375 -0.1875 -0.125 -0.421875zm-0.046875 -1.3125q-0.3125 0.125 -0.953125 0.21875q-0.359375 0.0625 -0.515625 0.125q-0.140625 0.0625 -0.234375 0.1875q-0.078125 0.125 -0.078125 0.28125q0 0.234375 0.171875 0.390625q0.1875 0.15625 0.53125 0.15625q0.328125 0 0.59375 -0.140625q0.265625 -0.15625 0.390625 -0.421875q0.09375 -0.1875 0.09375 -0.578125l0 -0.21875zm1.264389 0.703125l0.578125 -0.09375q0.046875 0.34375 0.265625 0.53125q0.234375 0.1875 0.625 0.1875q0.40625 0 0.59375 -0.15625q0.203125 -0.171875 0.203125 -0.390625q0 -0.203125 -0.171875 -0.3125q-0.125 -0.078125 -0.59375 -0.203125q-0.640625 -0.15625 -0.890625 -0.265625q-0.25 -0.125 -0.390625 -0.328125q-0.125 -0.21875 -0.125 -0.46875q0 -0.234375 0.109375 -0.421875q0.109375 -0.203125 0.296875 -0.34375q0.125 -0.09375 0.359375 -0.15625q0.234375 -0.078125 0.515625 -0.078125q0.40625 0 0.703125 0.125q0.3125 0.109375 0.453125 0.3125q0.15625 0.203125 0.203125 0.53125l-0.5625 0.078125q-0.046875 -0.265625 -0.234375 -0.40625q-0.1875 -0.15625 -0.53125 -0.15625q-0.390625 0 -0.5625 0.140625q-0.171875 0.125 -0.171875 0.296875q0 0.125 0.0625 0.203125q0.078125 0.109375 0.21875 0.15625q0.09375 0.046875 0.53125 0.15625q0.609375 0.171875 0.859375 0.28125q0.25 0.09375 0.390625 0.296875q0.140625 0.203125 0.140625 0.5q0 0.296875 -0.171875 0.5625q-0.171875 0.25 -0.5 0.390625q-0.3125 0.140625 -0.71875 0.140625q-0.6875 0 -1.046875 -0.28125q-0.34375 -0.28125 -0.4375 -0.828125zm3.5625 2.359375l0 -4.78125l0.53125 0l0 0.453125q0.1875 -0.265625 0.421875 -0.390625q0.25 -0.140625 0.578125 -0.140625q0.453125 0 0.78125 0.234375q0.34375 0.21875 0.515625 0.640625q0.171875 0.40625 0.171875 0.90625q0 0.53125 -0.1875 0.953125q-0.1875 0.421875 -0.5625 0.65625q-0.359375 0.21875 -0.75 0.21875q-0.296875 0 -0.53125 -0.125q-0.234375 -0.125 -0.375 -0.3125l0 1.6875l-0.59375 0zm0.53125 -3.03125q0 0.65625 0.265625 0.984375q0.28125 0.3125 0.65625 0.3125q0.390625 0 0.671875 -0.328125q0.28125 -0.328125 0.28125 -1.015625q0 -0.671875 -0.28125 -1.0q-0.265625 -0.328125 -0.640625 -0.328125q-0.375 0 -0.671875 0.359375q-0.28125 0.34375 -0.28125 1.015625zm3.717514 1.703125l-0.546875 0l0 -4.765625l0.578125 0l0 1.703125q0.375 -0.46875 0.953125 -0.46875q0.3125 0 0.59375 0.140625q0.296875 0.125 0.46875 0.359375q0.1875 0.21875 0.28125 0.546875q0.109375 0.328125 0.109375 0.703125q0 0.890625 -0.4375 1.375q-0.4375 0.484375 -1.046875 0.484375q-0.609375 0 -0.953125 -0.515625l0 0.4375zm-0.015625 -1.75q0 0.625 0.171875 0.890625q0.28125 0.453125 0.75 0.453125q0.375 0 0.65625 -0.328125q0.28125 -0.328125 0.28125 -1.0q0 -0.671875 -0.265625 -0.984375q-0.265625 -0.328125 -0.640625 -0.328125q-0.390625 0 -0.671875 0.34375q-0.28125 0.328125 -0.28125 0.953125zm3.170639 -2.34375l0 -0.671875l0.59375 0l0 0.671875l-0.59375 0zm0 4.09375l0 -3.453125l0.59375 0l0 3.453125l-0.59375 0zm3.7288055 -0.421875q-0.328125 0.265625 -0.625 0.390625q-0.296875 0.109375 -0.640625 0.109375q-0.578125 0 -0.890625 -0.28125q-0.296875 -0.28125 -0.296875 -0.703125q0 -0.25 0.109375 -0.453125q0.125 -0.21875 0.3125 -0.34375q0.1875 -0.140625 0.421875 -0.203125q0.171875 -0.046875 0.515625 -0.078125q0.71875 -0.09375 1.046875 -0.203125q0 -0.125 0 -0.15625q0 -0.359375 -0.15625 -0.5q-0.234375 -0.203125 -0.671875 -0.203125q-0.40625 0 -0.609375 0.15625q-0.203125 0.140625 -0.296875 0.5l-0.5625 -0.078125q0.078125 -0.359375 0.25 -0.578125q0.1875 -0.234375 0.515625 -0.359375q0.34375 -0.125 0.78125 -0.125q0.453125 0 0.71875 0.109375q0.28125 0.09375 0.40625 0.265625q0.140625 0.15625 0.1875 0.390625q0.03125 0.15625 0.03125 0.546875l0 0.765625q0 0.828125 0.03125 1.046875q0.046875 0.203125 0.15625 0.40625l-0.609375 0q-0.09375 -0.1875 -0.125 -0.421875zm-0.046875 -1.3125q-0.3125 0.125 -0.953125 0.21875q-0.359375 0.0625 -0.515625 0.125q-0.140625 0.0625 -0.234375 0.1875q-0.078125 0.125 -0.078125 0.28125q0 0.234375 0.171875 0.390625q0.1875 0.15625 0.53125 0.15625q0.328125 0 0.59375 -0.140625q0.265625 -0.15625 0.390625 -0.421875q0.09375 -0.1875 0.09375 -0.578125l0 -0.21875zm1.498764 1.734375l0 -3.453125l0.53125 0l0 0.5q0.375 -0.578125 1.09375 -0.578125q0.3125 0 0.578125 0.109375q0.265625 0.109375 0.390625 0.296875q0.125 0.1875 0.1875 0.4375q0.03125 0.15625 0.03125 0.5625l0 2.125l-0.59375 0l0 -2.09375q0 -0.359375 -0.078125 -0.53125q-0.0625 -0.1875 -0.234375 -0.28125q-0.171875 -0.109375 -0.40625 -0.109375q-0.375 0 -0.640625 0.234375q-0.265625 0.234375 -0.265625 0.890625l0 1.890625l-0.59375 0z" fill-rule="nonzero"/><path fill="#0b5394" d="m215.78957 47.47222l0 -4.765625l0.625 0l0 4.765625l-0.625 0zm1.6618195 0l0 -3.453125l0.53125 0l0 0.484375q0.15625 -0.25 0.421875 -0.40625q0.28125 -0.15625 0.625 -0.15625q0.375 0 0.625 0.15625q0.25 0.15625 0.34375 0.453125q0.40625 -0.609375 1.0625 -0.609375q0.515625 0 0.78125 0.296875q0.28125 0.28125 0.28125 0.859375l0 2.375l-0.578125 0l0 -2.171875q0 -0.359375 -0.0625 -0.5q-0.046875 -0.15625 -0.203125 -0.25q-0.140625 -0.09375 -0.34375 -0.09375q-0.359375 0 -0.609375 0.25q-0.234375 0.234375 -0.234375 0.765625l0 2.0l-0.59375 0l0 -2.25q0 -0.375 -0.140625 -0.5625q-0.140625 -0.203125 -0.46875 -0.203125q-0.25 0 -0.453125 0.125q-0.203125 0.125 -0.296875 0.375q-0.09375 0.25 -0.09375 0.71875l0 1.796875l-0.59375 0zm7.7947083 -0.421875q-0.328125 0.265625 -0.625 0.390625q-0.296875 0.109375 -0.640625 0.109375q-0.578125 0 -0.890625 -0.28125q-0.296875 -0.28125 -0.296875 -0.703125q0 -0.25 0.109375 -0.453125q0.125 -0.21875 0.3125 -0.34375q0.1875 -0.140625 0.421875 -0.203125q0.171875 -0.046875 0.515625 -0.078125q0.71875 -0.09375 1.046875 -0.203125q0 -0.125 0 -0.15625q0 -0.359375 -0.15625 -0.5q-0.234375 -0.203125 -0.671875 -0.203125q-0.40625 0 -0.609375 0.15625q-0.203125 0.140625 -0.296875 0.5l-0.5625 -0.078125q0.078125 -0.359375 0.25 -0.578125q0.1875 -0.234375 0.515625 -0.359375q0.34375 -0.125 0.78125 -0.125q0.453125 0 0.71875 0.109375q0.28125 0.09375 0.40625 0.265625q0.140625 0.15625 0.1875 0.390625q0.03125 0.15625 0.03125 0.546875l0 0.765625q0 0.828125 0.03125 1.046875q0.046875 0.203125 0.15625 0.40625l-0.609375 0q-0.09375 -0.1875 -0.125 -0.421875zm-0.046875 -1.3125q-0.3125 0.125 -0.953125 0.21875q-0.359375 0.0625 -0.515625 0.125q-0.140625 0.0625 -0.234375 0.1875q-0.078125 0.125 -0.078125 0.28125q0 0.234375 0.171875 0.390625q0.1875 0.15625 0.53125 0.15625q0.328125 0 0.59375 -0.140625q0.265625 -0.15625 0.390625 -0.421875q0.09375 -0.1875 0.09375 -0.578125l0 -0.21875zm1.389389 2.015625l0.578125 0.09375q0.03125 0.265625 0.1875 0.375q0.21875 0.171875 0.59375 0.171875q0.40625 0 0.625 -0.171875q0.234375 -0.15625 0.3125 -0.453125q0.046875 -0.171875 0.03125 -0.75q-0.375 0.453125 -0.953125 0.453125q-0.703125 0 -1.09375 -0.515625q-0.390625 -0.515625 -0.390625 -1.234375q0 -0.484375 0.171875 -0.90625q0.1875 -0.421875 0.515625 -0.640625q0.34375 -0.234375 0.796875 -0.234375q0.625 0 1.015625 0.5l0 -0.421875l0.53125 0l0 2.984375q0 0.8125 -0.171875 1.140625q-0.15625 0.34375 -0.515625 0.53125q-0.34375 0.203125 -0.859375 0.203125q-0.625 0 -1.015625 -0.28125q-0.375 -0.28125 -0.359375 -0.84375zm0.484375 -2.0625q0 0.671875 0.265625 0.984375q0.28125 0.3125 0.6875 0.3125q0.40625 0 0.671875 -0.3125q0.265625 -0.3125 0.265625 -0.96875q0 -0.640625 -0.28125 -0.953125q-0.28125 -0.328125 -0.671875 -0.328125q-0.390625 0 -0.671875 0.328125q-0.265625 0.3125 -0.265625 0.9375zm5.686264 0.671875l0.609375 0.078125q-0.140625 0.53125 -0.53125 0.828125q-0.390625 0.28125 -0.984375 0.28125q-0.765625 0 -1.203125 -0.46875q-0.4375 -0.46875 -0.4375 -1.3125q0 -0.859375 0.4375 -1.34375q0.453125 -0.484375 1.171875 -0.484375q0.6875 0 1.125 0.46875q0.4375 0.46875 0.4375 1.328125q0 0.046875 0 0.15625l-2.578125 0q0.03125 0.578125 0.3125 0.875q0.296875 0.296875 0.734375 0.296875q0.328125 0 0.546875 -0.15625q0.234375 -0.171875 0.359375 -0.546875zm-1.921875 -0.953125l1.9375 0q-0.046875 -0.4375 -0.21875 -0.640625q-0.28125 -0.34375 -0.734375 -0.34375q-0.40625 0 -0.6875 0.265625q-0.265625 0.265625 -0.296875 0.71875z" fill-rule="nonzero"/><path fill="#cfe2f3" d="m191.25041 197.73744l62.041824 0l8.572357 8.572357l0 42.860718l-70.61418 0z" fill-rule="evenodd"/><path stroke="#0b5394" stroke-width="4.0" stroke-linejoin="round" stroke-linecap="butt" d="m191.25041 197.73744l62.041824 0l8.572357 8.572357l0 42.860718l-70.61418 0z" fill-rule="evenodd"/><path fill="#0b5394" d="m212.33482 219.99707l0 -4.765625l0.9375 0l1.140625 3.375q0.15625 0.46875 0.21875 0.703125q0.078125 -0.265625 0.25 -0.765625l1.140625 -3.3125l0.859375 0l0 4.765625l-0.609375 0l0 -3.984375l-1.390625 3.984375l-0.5625 0l-1.375 -4.0625l0 4.0625l-0.609375 0zm5.2634583 -1.71875q0 -0.96875 0.53125 -1.421875q0.453125 -0.390625 1.09375 -0.390625q0.703125 0 1.15625 0.46875q0.453125 0.46875 0.453125 1.28125q0 0.671875 -0.203125 1.0625q-0.1875 0.375 -0.578125 0.59375q-0.375 0.203125 -0.828125 0.203125q-0.734375 0 -1.1875 -0.453125q-0.4375 -0.46875 -0.4375 -1.34375zm0.609375 0q0 0.65625 0.28125 0.984375q0.296875 0.328125 0.734375 0.328125q0.4375 0 0.71875 -0.328125q0.296875 -0.328125 0.296875 -1.015625q0 -0.640625 -0.296875 -0.96875q-0.296875 -0.328125 -0.71875 -0.328125q-0.4375 0 -0.734375 0.328125q-0.28125 0.328125 -0.28125 1.0zm5.545639 1.71875l0 -0.4375q-0.328125 0.515625 -0.953125 0.515625q-0.421875 0 -0.765625 -0.21875q-0.34375 -0.234375 -0.53125 -0.640625q-0.1875 -0.40625 -0.1875 -0.9375q0 -0.515625 0.171875 -0.9375q0.171875 -0.421875 0.515625 -0.640625q0.34375 -0.234375 0.765625 -0.234375q0.3125 0 0.546875 0.140625q0.25 0.125 0.40625 0.328125l0 -1.703125l0.578125 0l0 4.765625l-0.546875 0zm-1.84375 -1.71875q0 0.65625 0.28125 0.984375q0.28125 0.328125 0.65625 0.328125q0.390625 0 0.65625 -0.3125q0.265625 -0.3125 0.265625 -0.953125q0 -0.703125 -0.28125 -1.03125q-0.265625 -0.34375 -0.671875 -0.34375q-0.375 0 -0.640625 0.328125q-0.265625 0.3125 -0.265625 1.0zm3.311264 -2.375l0 -0.671875l0.59375 0l0 0.671875l-0.59375 0zm0 4.09375l0 -3.453125l0.59375 0l0 3.453125l-0.59375 0zm1.6194305 0l0 -3.0l-0.515625 0l0 -0.453125l0.515625 0l0 -0.359375q0 -0.359375 0.0625 -0.515625q0.078125 -0.234375 0.296875 -0.375q0.21875 -0.140625 0.59375 -0.140625q0.25 0 0.546875 0.0625l-0.078125 0.5q-0.1875 -0.03125 -0.359375 -0.03125q-0.265625 0 -0.375 0.125q-0.109375 0.109375 -0.109375 0.421875l0 0.3125l0.671875 0l0 0.453125l-0.671875 0l0 3.0l-0.578125 0zm1.7086945 -4.09375l0 -0.671875l0.59375 0l0 0.671875l-0.59375 0zm0 4.09375l0 -3.453125l0.59375 0l0 3.453125l-0.59375 0zm3.8381805 -1.109375l0.609375 0.078125q-0.140625 0.53125 -0.53125 0.828125q-0.390625 0.28125 -0.984375 0.28125q-0.765625 0 -1.203125 -0.46875q-0.4375 -0.46875 -0.4375 -1.3125q0 -0.859375 0.4375 -1.34375q0.453125 -0.484375 1.171875 -0.484375q0.6875 0 1.125 0.46875q0.4375 0.46875 0.4375 1.328125q0 0.046875 0 0.15625l-2.578125 0q0.03125 0.578125 0.3125 0.875q0.296875 0.296875 0.734375 0.296875q0.328125 0 0.546875 -0.15625q0.234375 -0.171875 0.359375 -0.546875zm-1.921875 -0.953125l1.9375 0q-0.046875 -0.4375 -0.21875 -0.640625q-0.28125 -0.34375 -0.734375 -0.34375q-0.40625 0 -0.6875 0.265625q-0.265625 0.265625 -0.296875 0.71875zm5.498764 2.0625l0 -0.4375q-0.328125 0.515625 -0.953125 0.515625q-0.421875 0 -0.765625 -0.21875q-0.34375 -0.234375 -0.53125 -0.640625q-0.1875 -0.40625 -0.1875 -0.9375q0 -0.515625 0.171875 -0.9375q0.171875 -0.421875 0.515625 -0.640625q0.34375 -0.234375 0.765625 -0.234375q0.3125 0 0.546875 0.140625q0.25 0.125 0.40625 0.328125l0 -1.703125l0.578125 0l0 4.765625l-0.546875 0zm-1.84375 -1.71875q0 0.65625 0.28125 0.984375q0.28125 0.328125 0.65625 0.328125q0.390625 0 0.65625 -0.3125q0.265625 -0.3125 0.265625 -0.953125q0 -0.703125 -0.28125 -1.03125q-0.265625 -0.34375 -0.671875 -0.34375q-0.375 0 -0.640625 0.328125q-0.265625 0.3125 -0.265625 1.0z" fill-rule="nonzero"/><path fill="#0b5394" d="m210.8684 227.99707l0 -4.765625l2.125 0q0.625 0 0.953125 0.125q0.34375 0.125 0.53125 0.453125q0.203125 0.328125 0.203125 0.71875q0 0.515625 -0.328125 0.859375q-0.328125 0.34375 -1.015625 0.4375q0.25 0.125 0.390625 0.234375q0.265625 0.265625 0.515625 0.640625l0.828125 1.296875l-0.796875 0l-0.625 -0.984375q-0.28125 -0.4375 -0.453125 -0.65625q-0.171875 -0.234375 -0.328125 -0.328125q-0.140625 -0.09375 -0.28125 -0.125q-0.109375 -0.015625 -0.34375 -0.015625l-0.734375 0l0 2.109375l-0.640625 0zm0.640625 -2.65625l1.359375 0q0.421875 0 0.65625 -0.09375q0.25 -0.09375 0.375 -0.28125q0.140625 -0.203125 0.140625 -0.4375q0 -0.328125 -0.25 -0.546875q-0.25 -0.21875 -0.78125 -0.21875l-1.5 0l0 1.578125zm6.3381805 2.234375q-0.328125 0.265625 -0.625 0.390625q-0.296875 0.109375 -0.640625 0.109375q-0.578125 0 -0.890625 -0.28125q-0.296875 -0.28125 -0.296875 -0.703125q0 -0.25 0.109375 -0.453125q0.125 -0.21875 0.3125 -0.34375q0.1875 -0.140625 0.421875 -0.203125q0.171875 -0.046875 0.515625 -0.078125q0.71875 -0.09375 1.046875 -0.203125q0 -0.125 0 -0.15625q0 -0.359375 -0.15625 -0.5q-0.234375 -0.203125 -0.671875 -0.203125q-0.40625 0 -0.609375 0.15625q-0.203125 0.140625 -0.296875 0.5l-0.5625 -0.078125q0.078125 -0.359375 0.25 -0.578125q0.1875 -0.234375 0.515625 -0.359375q0.34375 -0.125 0.78125 -0.125q0.453125 0 0.71875 0.109375q0.28125 0.09375 0.40625 0.265625q0.140625 0.15625 0.1875 0.390625q0.03125 0.15625 0.03125 0.546875l0 0.765625q0 0.828125 0.03125 1.046875q0.046875 0.203125 0.15625 0.40625l-0.609375 0q-0.09375 -0.1875 -0.125 -0.421875zm-0.046875 -1.3125q-0.3125 0.125 -0.953125 0.21875q-0.359375 0.0625 -0.515625 0.125q-0.140625 0.0625 -0.234375 0.1875q-0.078125 0.125 -0.078125 0.28125q0 0.234375 0.171875 0.390625q0.1875 0.15625 0.53125 0.15625q0.328125 0 0.59375 -0.140625q0.265625 -0.15625 0.390625 -0.421875q0.09375 -0.1875 0.09375 -0.578125l0 -0.21875zm1.264389 0.703125l0.578125 -0.09375q0.046875 0.34375 0.265625 0.53125q0.234375 0.1875 0.625 0.1875q0.40625 0 0.59375 -0.15625q0.203125 -0.171875 0.203125 -0.390625q0 -0.203125 -0.171875 -0.3125q-0.125 -0.078125 -0.59375 -0.203125q-0.640625 -0.15625 -0.890625 -0.265625q-0.25 -0.125 -0.390625 -0.328125q-0.125 -0.21875 -0.125 -0.46875q0 -0.234375 0.109375 -0.421875q0.109375 -0.203125 0.296875 -0.34375q0.125 -0.09375 0.359375 -0.15625q0.234375 -0.078125 0.515625 -0.078125q0.40625 0 0.703125 0.125q0.3125 0.109375 0.453125 0.3125q0.15625 0.203125 0.203125 0.53125l-0.5625 0.078125q-0.046875 -0.265625 -0.234375 -0.40625q-0.1875 -0.15625 -0.53125 -0.15625q-0.390625 0 -0.5625 0.140625q-0.171875 0.125 -0.171875 0.296875q0 0.125 0.0625 0.203125q0.078125 0.109375 0.21875 0.15625q0.09375 0.046875 0.53125 0.15625q0.609375 0.171875 0.859375 0.28125q0.25 0.09375 0.390625 0.296875q0.140625 0.203125 0.140625 0.5q0 0.296875 -0.171875 0.5625q-0.171875 0.25 -0.5 0.390625q-0.3125 0.140625 -0.71875 0.140625q-0.6875 0 -1.046875 -0.28125q-0.34375 -0.28125 -0.4375 -0.828125zm3.5625 2.359375l0 -4.78125l0.53125 0l0 0.453125q0.1875 -0.265625 0.421875 -0.390625q0.25 -0.140625 0.578125 -0.140625q0.453125 0 0.78125 0.234375q0.34375 0.21875 0.515625 0.640625q0.171875 0.40625 0.171875 0.90625q0 0.53125 -0.1875 0.953125q-0.1875 0.421875 -0.5625 0.65625q-0.359375 0.21875 -0.75 0.21875q-0.296875 0 -0.53125 -0.125q-0.234375 -0.125 -0.375 -0.3125l0 1.6875l-0.59375 0zm0.53125 -3.03125q0 0.65625 0.265625 0.984375q0.28125 0.3125 0.65625 0.3125q0.390625 0 0.671875 -0.328125q0.28125 -0.328125 0.28125 -1.015625q0 -0.671875 -0.28125 -1.0q-0.265625 -0.328125 -0.640625 -0.328125q-0.375 0 -0.671875 0.359375q-0.28125 0.34375 -0.28125 1.015625zm3.717514 1.703125l-0.546875 0l0 -4.765625l0.578125 0l0 1.703125q0.375 -0.46875 0.953125 -0.46875q0.3125 0 0.59375 0.140625q0.296875 0.125 0.46875 0.359375q0.1875 0.21875 0.28125 0.546875q0.109375 0.328125 0.109375 0.703125q0 0.890625 -0.4375 1.375q-0.4375 0.484375 -1.046875 0.484375q-0.609375 0 -0.953125 -0.515625l0 0.4375zm-0.015625 -1.75q0 0.625 0.171875 0.890625q0.28125 0.453125 0.75 0.453125q0.375 0 0.65625 -0.328125q0.28125 -0.328125 0.28125 -1.0q0 -0.671875 -0.265625 -0.984375q-0.265625 -0.328125 -0.640625 -0.328125q-0.390625 0 -0.671875 0.34375q-0.28125 0.328125 -0.28125 0.953125zm3.170639 -2.34375l0 -0.671875l0.59375 0l0 0.671875l-0.59375 0zm0 4.09375l0 -3.453125l0.59375 0l0 3.453125l-0.59375 0zm3.7288055 -0.421875q-0.328125 0.265625 -0.625 0.390625q-0.296875 0.109375 -0.640625 0.109375q-0.578125 0 -0.890625 -0.28125q-0.296875 -0.28125 -0.296875 -0.703125q0 -0.25 0.109375 -0.453125q0.125 -0.21875 0.3125 -0.34375q0.1875 -0.140625 0.421875 -0.203125q0.171875 -0.046875 0.515625 -0.078125q0.71875 -0.09375 1.046875 -0.203125q0 -0.125 0 -0.15625q0 -0.359375 -0.15625 -0.5q-0.234375 -0.203125 -0.671875 -0.203125q-0.40625 0 -0.609375 0.15625q-0.203125 0.140625 -0.296875 0.5l-0.5625 -0.078125q0.078125 -0.359375 0.25 -0.578125q0.1875 -0.234375 0.515625 -0.359375q0.34375 -0.125 0.78125 -0.125q0.453125 0 0.71875 0.109375q0.28125 0.09375 0.40625 0.265625q0.140625 0.15625 0.1875 0.390625q0.03125 0.15625 0.03125 0.546875l0 0.765625q0 0.828125 0.03125 1.046875q0.046875 0.203125 0.15625 0.40625l-0.609375 0q-0.09375 -0.1875 -0.125 -0.421875zm-0.046875 -1.3125q-0.3125 0.125 -0.953125 0.21875q-0.359375 0.0625 -0.515625 0.125q-0.140625 0.0625 -0.234375 0.1875q-0.078125 0.125 -0.078125 0.28125q0 0.234375 0.171875 0.390625q0.1875 0.15625 0.53125 0.15625q0.328125 0 0.59375 -0.140625q0.265625 -0.15625 0.390625 -0.421875q0.09375 -0.1875 0.09375 -0.578125l0 -0.21875zm1.498764 1.734375l0 -3.453125l0.53125 0l0 0.5q0.375 -0.578125 1.09375 -0.578125q0.3125 0 0.578125 0.109375q0.265625 0.109375 0.390625 0.296875q0.125 0.1875 0.1875 0.4375q0.03125 0.15625 0.03125 0.5625l0 2.125l-0.59375 0l0 -2.09375q0 -0.359375 -0.078125 -0.53125q-0.0625 -0.1875 -0.234375 -0.28125q-0.171875 -0.109375 -0.40625 -0.109375q-0.375 0 -0.640625 0.234375q-0.265625 0.234375 -0.265625 0.890625l0 1.890625l-0.59375 0z" fill-rule="nonzero"/><path fill="#0b5394" d="m215.78957 235.99707l0 -4.765625l0.625 0l0 4.765625l-0.625 0zm1.6618195 0l0 -3.453125l0.53125 0l0 0.484375q0.15625 -0.25 0.421875 -0.40625q0.28125 -0.15625 0.625 -0.15625q0.375 0 0.625 0.15625q0.25 0.15625 0.34375 0.453125q0.40625 -0.609375 1.0625 -0.609375q0.515625 0 0.78125 0.296875q0.28125 0.28125 0.28125 0.859375l0 2.375l-0.578125 0l0 -2.171875q0 -0.359375 -0.0625 -0.5q-0.046875 -0.15625 -0.203125 -0.25q-0.140625 -0.09375 -0.34375 -0.09375q-0.359375 0 -0.609375 0.25q-0.234375 0.234375 -0.234375 0.765625l0 2.0l-0.59375 0l0 -2.25q0 -0.375 -0.140625 -0.5625q-0.140625 -0.203125 -0.46875 -0.203125q-0.25 0 -0.453125 0.125q-0.203125 0.125 -0.296875 0.375q-0.09375 0.25 -0.09375 0.71875l0 1.796875l-0.59375 0zm7.7947083 -0.421875q-0.328125 0.265625 -0.625 0.390625q-0.296875 0.109375 -0.640625 0.109375q-0.578125 0 -0.890625 -0.28125q-0.296875 -0.28125 -0.296875 -0.703125q0 -0.25 0.109375 -0.453125q0.125 -0.21875 0.3125 -0.34375q0.1875 -0.140625 0.421875 -0.203125q0.171875 -0.046875 0.515625 -0.078125q0.71875 -0.09375 1.046875 -0.203125q0 -0.125 0 -0.15625q0 -0.359375 -0.15625 -0.5q-0.234375 -0.203125 -0.671875 -0.203125q-0.40625 0 -0.609375 0.15625q-0.203125 0.140625 -0.296875 0.5l-0.5625 -0.078125q0.078125 -0.359375 0.25 -0.578125q0.1875 -0.234375 0.515625 -0.359375q0.34375 -0.125 0.78125 -0.125q0.453125 0 0.71875 0.109375q0.28125 0.09375 0.40625 0.265625q0.140625 0.15625 0.1875 0.390625q0.03125 0.15625 0.03125 0.546875l0 0.765625q0 0.828125 0.03125 1.046875q0.046875 0.203125 0.15625 0.40625l-0.609375 0q-0.09375 -0.1875 -0.125 -0.421875zm-0.046875 -1.3125q-0.3125 0.125 -0.953125 0.21875q-0.359375 0.0625 -0.515625 0.125q-0.140625 0.0625 -0.234375 0.1875q-0.078125 0.125 -0.078125 0.28125q0 0.234375 0.171875 0.390625q0.1875 0.15625 0.53125 0.15625q0.328125 0 0.59375 -0.140625q0.265625 -0.15625 0.390625 -0.421875q0.09375 -0.1875 0.09375 -0.578125l0 -0.21875zm1.389389 2.015625l0.578125 0.09375q0.03125 0.265625 0.1875 0.375q0.21875 0.171875 0.59375 0.171875q0.40625 0 0.625 -0.171875q0.234375 -0.15625 0.3125 -0.453125q0.046875 -0.171875 0.03125 -0.75q-0.375 0.453125 -0.953125 0.453125q-0.703125 0 -1.09375 -0.515625q-0.390625 -0.515625 -0.390625 -1.234375q0 -0.484375 0.171875 -0.90625q0.1875 -0.421875 0.515625 -0.640625q0.34375 -0.234375 0.796875 -0.234375q0.625 0 1.015625 0.5l0 -0.421875l0.53125 0l0 2.984375q0 0.8125 -0.171875 1.140625q-0.15625 0.34375 -0.515625 0.53125q-0.34375 0.203125 -0.859375 0.203125q-0.625 0 -1.015625 -0.28125q-0.375 -0.28125 -0.359375 -0.84375zm0.484375 -2.0625q0 0.671875 0.265625 0.984375q0.28125 0.3125 0.6875 0.3125q0.40625 0 0.671875 -0.3125q0.265625 -0.3125 0.265625 -0.96875q0 -0.640625 -0.28125 -0.953125q-0.28125 -0.328125 -0.671875 -0.328125q-0.390625 0 -0.671875 0.328125q-0.265625 0.3125 -0.265625 0.9375zm5.686264 0.671875l0.609375 0.078125q-0.140625 0.53125 -0.53125 0.828125q-0.390625 0.28125 -0.984375 0.28125q-0.765625 0 -1.203125 -0.46875q-0.4375 -0.46875 -0.4375 -1.3125q0 -0.859375 0.4375 -1.34375q0.453125 -0.484375 1.171875 -0.484375q0.6875 0 1.125 0.46875q0.4375 0.46875 0.4375 1.328125q0 0.046875 0 0.15625l-2.578125 0q0.03125 0.578125 0.3125 0.875q0.296875 0.296875 0.734375 0.296875q0.328125 0 0.546875 -0.15625q0.234375 -0.171875 0.359375 -0.546875zm-1.921875 -0.953125l1.9375 0q-0.046875 -0.4375 -0.21875 -0.640625q-0.28125 -0.34375 -0.734375 -0.34375q-0.40625 0 -0.6875 0.265625q-0.265625 0.265625 -0.296875 0.71875z" fill-rule="nonzero"/><path fill="#000000" fill-opacity="0.0" d="m226.5575 64.64567l0 41.79528" fill-rule="evenodd"/><path stroke="#0b5394" stroke-width="1.0" stroke-linejoin="round" stroke-linecap="butt" d="m226.5575 64.64567l0 35.79528" fill-rule="evenodd"/><path fill="#0b5394" stroke="#0b5394" stroke-width="1.0" stroke-linecap="butt" d="m224.90576 100.44095l1.6517334 4.5380936l1.6517334 -4.5380936z" fill-rule="evenodd"/><path fill="#cfe2f3" d="m193.68977 106.450714l65.705826 0l0 0c8.6076355 0 15.58551 5.189415 15.58551 11.590866c0 6.4014587 -6.9778748 11.590866 -15.58551 11.590866l-65.705826 0l0 0c-8.6076355 0 -15.58551 -5.1894073 -15.58551 -11.590866c0 -6.401451 6.9778748 -11.590866 15.58551 -11.590866z" fill-rule="evenodd"/><path stroke="#0b5394" stroke-width="4.0" stroke-linejoin="round" stroke-linecap="butt" d="m193.68977 106.450714l65.705826 0l0 0c8.6076355 0 15.58551 5.189415 15.58551 11.590866c0 6.4014587 -6.9778748 11.590866 -15.58551 11.590866l-65.705826 0l0 0c-8.6076355 0 -15.58551 -5.1894073 -15.58551 -11.590866c0 -6.401451 6.9778748 -11.590866 15.58551 -11.590866z" fill-rule="evenodd"/><path fill="#0b5394" d="m208.80638 118.76971l0.640625 0.15625q-0.203125 0.78125 -0.71875 1.1875q-0.515625 0.40625 -1.25 0.40625q-0.78125 0 -1.265625 -0.3125q-0.484375 -0.3125 -0.734375 -0.90625q-0.25 -0.59375 -0.25 -1.28125q0 -0.734375 0.28125 -1.28125q0.296875 -0.5625 0.8125 -0.84375q0.53125 -0.296875 1.15625 -0.296875q0.71875 0 1.203125 0.359375q0.484375 0.359375 0.6875 1.03125l-0.625 0.140625q-0.171875 -0.515625 -0.484375 -0.75q-0.3125 -0.25 -0.796875 -0.25q-0.546875 0 -0.921875 0.265625q-0.359375 0.265625 -0.515625 0.71875q-0.140625 0.4375 -0.140625 0.90625q0 0.609375 0.171875 1.0625q0.171875 0.453125 0.546875 0.6875q0.375 0.21875 0.8125 0.21875q0.53125 0 0.890625 -0.296875q0.375 -0.3125 0.5 -0.921875zm1.1194305 -0.046875q0 -0.96875 0.53125 -1.421875q0.453125 -0.390625 1.09375 -0.390625q0.703125 0 1.15625 0.46875q0.453125 0.46875 0.453125 1.28125q0 0.671875 -0.203125 1.0625q-0.1875 0.375 -0.578125 0.59375q-0.375 0.203125 -0.828125 0.203125q-0.734375 0 -1.1875 -0.453125q-0.4375 -0.46875 -0.4375 -1.34375zm0.609375 0q0 0.65625 0.28125 0.984375q0.296875 0.328125 0.734375 0.328125q0.4375 0 0.71875 -0.328125q0.296875 -0.328125 0.296875 -1.015625q0 -0.640625 -0.296875 -0.96875q-0.296875 -0.328125 -0.71875 -0.328125q-0.4375 0 -0.734375 0.328125q-0.28125 0.328125 -0.28125 1.0zm3.311264 3.046875l0 -4.78125l0.53125 0l0 0.453125q0.1875 -0.265625 0.421875 -0.390625q0.25 -0.140625 0.578125 -0.140625q0.453125 0 0.78125 0.234375q0.34375 0.21875 0.515625 0.640625q0.171875 0.40625 0.171875 0.90625q0 0.53125 -0.1875 0.953125q-0.1875 0.421875 -0.5625 0.65625q-0.359375 0.21875 -0.75 0.21875q-0.296875 0 -0.53125 -0.125q-0.234375 -0.125 -0.375 -0.3125l0 1.6875l-0.59375 0zm0.53125 -3.03125q0 0.65625 0.265625 0.984375q0.28125 0.3125 0.65625 0.3125q0.390625 0 0.671875 -0.328125q0.28125 -0.328125 0.28125 -1.015625q0 -0.671875 -0.28125 -1.0q-0.265625 -0.328125 -0.640625 -0.328125q-0.375 0 -0.671875 0.359375q-0.28125 0.34375 -0.28125 1.015625zm3.139389 3.03125l-0.0625 -0.546875q0.203125 0.046875 0.34375 0.046875q0.1875 0 0.296875 -0.0625q0.125 -0.0625 0.203125 -0.1875q0.046875 -0.078125 0.171875 -0.421875q0.015625 -0.0625 0.0625 -0.15625l-1.3125 -3.453125l0.625 0l0.71875 2.0q0.140625 0.375 0.25 0.796875q0.109375 -0.40625 0.25 -0.78125l0.734375 -2.015625l0.578125 0l-1.3125 3.515625q-0.203125 0.5625 -0.328125 0.78125q-0.15625 0.28125 -0.359375 0.421875q-0.203125 0.140625 -0.46875 0.140625q-0.171875 0 -0.390625 -0.078125zm5.2086945 -5.421875l0 -0.671875l0.59375 0l0 0.671875l-0.59375 0zm0 4.09375l0 -3.453125l0.59375 0l0 3.453125l-0.59375 0zm1.4788055 0l0 -3.453125l0.53125 0l0 0.5q0.375 -0.578125 1.09375 -0.578125q0.3125 0 0.578125 0.109375q0.265625 0.109375 0.390625 0.296875q0.125 0.1875 0.1875 0.4375q0.03125 0.15625 0.03125 0.5625l0 2.125l-0.59375 0l0 -2.09375q0 -0.359375 -0.078125 -0.53125q-0.0625 -0.1875 -0.234375 -0.28125q-0.171875 -0.109375 -0.40625 -0.109375q-0.375 0 -0.640625 0.234375q-0.265625 0.234375 -0.265625 0.890625l0 1.890625l-0.59375 0zm3.467514 -1.03125l0.578125 -0.09375q0.046875 0.34375 0.265625 0.53125q0.234375 0.1875 0.625 0.1875q0.40625 0 0.59375 -0.15625q0.203125 -0.171875 0.203125 -0.390625q0 -0.203125 -0.171875 -0.3125q-0.125 -0.078125 -0.59375 -0.203125q-0.640625 -0.15625 -0.890625 -0.265625q-0.25 -0.125 -0.390625 -0.328125q-0.125 -0.21875 -0.125 -0.46875q0 -0.234375 0.109375 -0.421875q0.109375 -0.203125 0.296875 -0.34375q0.125 -0.09375 0.359375 -0.15625q0.234375 -0.078125 0.515625 -0.078125q0.40625 0 0.703125 0.125q0.3125 0.109375 0.453125 0.3125q0.15625 0.203125 0.203125 0.53125l-0.5625 0.078125q-0.046875 -0.265625 -0.234375 -0.40625q-0.1875 -0.15625 -0.53125 -0.15625q-0.390625 0 -0.5625 0.140625q-0.171875 0.125 -0.171875 0.296875q0 0.125 0.0625 0.203125q0.078125 0.109375 0.21875 0.15625q0.09375 0.046875 0.53125 0.15625q0.609375 0.171875 0.859375 0.28125q0.25 0.09375 0.390625 0.296875q0.140625 0.203125 0.140625 0.5q0 0.296875 -0.171875 0.5625q-0.171875 0.25 -0.5 0.390625q-0.3125 0.140625 -0.71875 0.140625q-0.6875 0 -1.046875 -0.28125q-0.34375 -0.28125 -0.4375 -0.828125zm4.84375 0.515625l0.078125 0.515625q-0.25 0.046875 -0.4375 0.046875q-0.3125 0 -0.5 -0.09375q-0.171875 -0.109375 -0.25 -0.265625q-0.0625 -0.171875 -0.0625 -0.703125l0 -1.984375l-0.4375 0l0 -0.453125l0.4375 0l0 -0.859375l0.578125 -0.34375l0 1.203125l0.59375 0l0 0.453125l-0.59375 0l0 2.015625q0 0.25 0.03125 0.328125q0.03125 0.078125 0.09375 0.125q0.078125 0.03125 0.203125 0.03125q0.109375 0 0.265625 -0.015625zm2.8180695 0.09375q-0.328125 0.265625 -0.625 0.390625q-0.296875 0.109375 -0.640625 0.109375q-0.578125 0 -0.890625 -0.28125q-0.296875 -0.28125 -0.296875 -0.703125q0 -0.25 0.109375 -0.453125q0.125 -0.21875 0.3125 -0.34375q0.1875 -0.140625 0.421875 -0.203125q0.171875 -0.046875 0.515625 -0.078125q0.71875 -0.09375 1.046875 -0.203125q0 -0.125 0 -0.15625q0 -0.359375 -0.15625 -0.5q-0.234375 -0.203125 -0.671875 -0.203125q-0.40625 0 -0.609375 0.15625q-0.203125 0.140625 -0.296875 0.5l-0.5625 -0.078125q0.078125 -0.359375 0.25 -0.578125q0.1875 -0.234375 0.515625 -0.359375q0.34375 -0.125 0.78125 -0.125q0.453125 0 0.71875 0.109375q0.28125 0.09375 0.40625 0.265625q0.140625 0.15625 0.1875 0.390625q0.03125 0.15625 0.03125 0.546875l0 0.765625q0 0.828125 0.03125 1.046875q0.046875 0.203125 0.15625 0.40625l-0.609375 0q-0.09375 -0.1875 -0.125 -0.421875zm-0.046875 -1.3125q-0.3125 0.125 -0.953125 0.21875q-0.359375 0.0625 -0.515625 0.125q-0.140625 0.0625 -0.234375 0.1875q-0.078125 0.125 -0.078125 0.28125q0 0.234375 0.171875 0.390625q0.1875 0.15625 0.53125 0.15625q0.328125 0 0.59375 -0.140625q0.265625 -0.15625 0.390625 -0.421875q0.09375 -0.1875 0.09375 -0.578125l0 -0.21875zm1.483139 1.734375l0 -4.765625l0.59375 0l0 4.765625l-0.59375 0zm1.4788055 0l0 -4.765625l0.59375 0l0 4.765625l-0.59375 0zm1.6663055 0l0 -0.671875l0.65625 0l0 0.671875l-0.65625 0zm1.4430695 -1.03125l0.578125 -0.09375q0.046875 0.34375 0.265625 0.53125q0.234375 0.1875 0.625 0.1875q0.40625 0 0.59375 -0.15625q0.203125 -0.171875 0.203125 -0.390625q0 -0.203125 -0.171875 -0.3125q-0.125 -0.078125 -0.59375 -0.203125q-0.640625 -0.15625 -0.890625 -0.265625q-0.25 -0.125 -0.390625 -0.328125q-0.125 -0.21875 -0.125 -0.46875q0 -0.234375 0.109375 -0.421875q0.109375 -0.203125 0.296875 -0.34375q0.125 -0.09375 0.359375 -0.15625q0.234375 -0.078125 0.515625 -0.078125q0.40625 0 0.703125 0.125q0.3125 0.109375 0.453125 0.3125q0.15625 0.203125 0.203125 0.53125l-0.5625 0.078125q-0.046875 -0.265625 -0.234375 -0.40625q-0.1875 -0.15625 -0.53125 -0.15625q-0.390625 0 -0.5625 0.140625q-0.171875 0.125 -0.171875 0.296875q0 0.125 0.0625 0.203125q0.078125 0.109375 0.21875 0.15625q0.09375 0.046875 0.53125 0.15625q0.609375 0.171875 0.859375 0.28125q0.25 0.09375 0.390625 0.296875q0.140625 0.203125 0.140625 0.5q0 0.296875 -0.171875 0.5625q-0.171875 0.25 -0.5 0.390625q-0.3125 0.140625 -0.71875 0.140625q-0.6875 0 -1.046875 -0.28125q-0.34375 -0.28125 -0.4375 -0.828125zm3.5625 1.03125l0 -4.765625l0.59375 0l0 1.703125q0.40625 -0.46875 1.03125 -0.46875q0.375 0 0.65625 0.15625q0.28125 0.140625 0.40625 0.421875q0.125 0.265625 0.125 0.765625l0 2.1875l-0.578125 0l0 -2.1875q0 -0.4375 -0.203125 -0.640625q-0.1875 -0.203125 -0.53125 -0.203125q-0.265625 0 -0.5 0.140625q-0.21875 0.140625 -0.3125 0.375q-0.09375 0.21875 -0.09375 0.625l0 1.890625l-0.59375 0z" fill-rule="nonzero"/><path fill="#000000" fill-opacity="0.0" d="m226.5427 129.63245l0 68.0945" fill-rule="evenodd"/><path stroke="#0b5394" stroke-width="1.0" stroke-linejoin="round" stroke-linecap="butt" d="m226.5427 129.63245l0 62.094482" fill-rule="evenodd"/><path fill="#0b5394" stroke="#0b5394" stroke-width="1.0" stroke-linecap="butt" d="m224.89096 191.72693l1.6517334 4.538101l1.6517334 -4.538101z" fill-rule="evenodd"/></g></svg>
